<?xml version="1.0" ?><!DOCTYPE svg  PUBLIC '-//W3C//DTD SVG 1.1//EN'  'http://www.w3.org/Graphics/SVG/1.1/DTD/svg11.dtd'><svg enable-background="new 0 0 92.168 92.168" height="48" id="Слой_1" version="1.1" viewBox="0 0 92.168 92.168" width="48" xml:space="preserve" xmlns="http://www.w3.org/2000/svg" xmlns:xlink="http://www.w3.org/1999/xlink"><rect clip-rule="evenodd" fill="none" fill-rule="evenodd" height="92.168" width="92.168" x="0" y="0"/><path d="M86.427,1.844C86.427,0.811,87.266,0,88.278,0c1.035,0,1.849,0.811,1.849,1.844v88.479  c0,1.033-0.813,1.844-1.849,1.844c-1.012,0-1.851-0.811-1.851-1.844V1.844z M11.485,92.168c-1.035,0-1.849-0.811-1.849-1.844  c0-1.007,0.813-1.844,1.849-1.844h15.412V1.844C26.898,0.811,27.711,0,28.749,0c1.01,0,1.849,0.811,1.849,1.844v86.635h30.974V1.844  C61.571,0.811,62.408,0,63.419,0c1.035,0,1.849,0.811,1.849,1.844v86.635H80.73c1.038,0,1.851,0.837,1.851,1.844  c0,1.033-0.813,1.844-1.851,1.844H11.485z M82.285,61.143c0.591,0.835,0.418,1.991-0.421,2.58c-0.813,0.591-1.972,0.418-2.565-0.416  c-2.243-3.05-5.253-4.991-8.827-6.122c-0.988-0.296-1.529-1.329-1.208-2.312c0.296-0.958,1.331-1.499,2.293-1.204  C75.898,55.021,79.621,57.478,82.285,61.143L82.285,61.143z M55.207,58.241c0.962-0.395,2.023,0.073,2.418,1.007  c0.393,0.934-0.075,2.017-1.012,2.409c-8.262,3.32-12.798,3.32-21.036,0c-0.962-0.393-1.404-1.452-1.035-2.409  c0.395-0.934,1.456-1.402,2.416-1.007C44.357,61.216,47.834,61.216,55.207,58.241L55.207,58.241z M20.659,53.642  c0.986-0.293,2.021,0.246,2.317,1.23c0.298,0.96-0.246,1.991-1.232,2.287c-3.749,1.156-6.931,3.27-9.15,6.54  c-0.565,0.835-1.726,1.057-2.563,0.466C9.192,63.6,8.97,62.469,9.538,61.609C12.249,57.65,16.071,55.07,20.659,53.642L20.659,53.642  z M37.403,18.488c-0.74,0.688-1.922,0.638-2.614-0.099c-0.69-0.761-0.641-1.918,0.125-2.606c6.583-6.048,15.732-6.072,22.317,0  c0.764,0.688,0.813,1.844,0.123,2.582c-0.69,0.761-1.875,0.811-2.614,0.123C49.56,13.719,42.582,13.743,37.403,18.488L37.403,18.488  z M54.666,49.71c0.764-0.688,1.922-0.615,2.612,0.123c0.692,0.761,0.643,1.918-0.123,2.606c-4.659,4.228-11.023,5.729-16.965,3.294  c-1.898-0.761-3.65-1.892-5.229-3.343c-0.74-0.662-0.787-1.844-0.123-2.58c0.69-0.738,1.851-0.813,2.614-0.123  C42.582,54.38,49.511,54.38,54.666,49.71L54.666,49.71z M2.042,1.844C2.042,0.811,2.855,0,3.89,0c1.012,0,1.849,0.811,1.849,1.844  v88.479c0,1.007-0.837,1.844-1.849,1.844c-1.035,0-1.849-0.837-1.849-1.844V1.844z" fill="#3A3E49"/></svg>