<?xml version="1.0" ?><!DOCTYPE svg  PUBLIC '-//W3C//DTD SVG 1.1//EN'  'http://www.w3.org/Graphics/SVG/1.1/DTD/svg11.dtd'><svg height = "48" width = "48"  enable-background="new 0 0 100 100" id="Layer_1" version="1.1" viewBox="0 0 100 100" xml:space="preserve" xmlns="http://www.w3.org/2000/svg" xmlns:xlink="http://www.w3.org/1999/xlink"><g><path d="M93.5,47.5c-1.5-2.2-4-3.5-6.7-3.5c-1.7,0-3.3,0.5-4.7,1.5c-3.7,2.6-4.6,7.7-2,11.4c1.5,2.2,4,3.5,6.7,3.5c0,0,0,0,0,0   c1.7,0,3.3-0.5,4.7-1.5C95.2,56.3,96.1,51.2,93.5,47.5z M90.9,58.1c-1.2,0.9-2.6,1.3-4.1,1.3c0,0,0,0,0,0c-2.3,0-4.5-1.1-5.8-3   c-2.3-3.2-1.5-7.7,1.7-10c1.2-0.9,2.6-1.3,4.1-1.3c2.3,0,4.5,1.1,5.8,3C94.9,51.3,94.1,55.8,90.9,58.1z"/><path d="M83.9,63.8C83.8,63.7,83.8,63.7,83.9,63.8l-6.1-8.6c-2.4-3.5-5.8-6.3-9.6-8.2l-3.4-1.7l5.8-4.9c1.3-1.1,1.5-3,0.4-4.3   c-1-1.2-2.7-1.5-4.1-0.6l-8.9,6.1L49.7,41l-5-1.3H53c2.3,0,4.3-1.5,5-3.6l3.9-11.6c0.5-1.5-0.3-3.2-1.8-3.8c-0.3-0.1-0.7-0.2-1-0.2   c-1.2,0-2.2,0.7-2.7,1.7l-5.4,9.7h-6c1.7,0,3.3-0.5,4.7-1.5c3.7-2.6,4.6-7.7,2-11.4c-1.5-2.2-4-3.5-6.7-3.5c-1.7,0-3.3,0.5-4.7,1.5   c-3.7,2.6-4.6,7.7-2,11.4c1.5,2.2,4,3.5,6.6,3.5h-4.1l-2.3-1.7c-1.2-0.9-2.5-1.3-4-1.3c-2.1,0-4.1,1-5.4,2.7l-7.5,10.2   C20,43.6,18.8,45.4,18,47c-0.6,1.3-0.7,2.8-0.4,4.1L14.8,64l-8.5,6.7c-1.4,1.1-1.7,3-0.7,4.5c0.6,0.9,1.7,1.5,2.8,1.5   c0.6,0,1.1-0.1,1.6-0.4l11.8-6.7c0.1-0.1,0.2-0.2,0.2-0.3l3.6-11.3l9.7,5.7l-0.3,2l-10.2,1.6c-1.3,0.2-2.3,1.3-2.3,2.7   c0,0.7,0.3,1.4,0.8,1.9c0.5,0.5,1.2,0.8,1.9,0.8c0,0,0,0,0.1,0l8.5,0l-0.4,2.5C33.2,76,33.4,77,34,77.7c0.5,0.7,1.3,1.2,2.2,1.3   c0.2,0,0.4,0.1,0.8,0.1c0.3,0,0.7-0.1,1.1-0.2c-0.1,0.8,0.2,1.7,0.7,2.3c0.6,0.8,1.5,1.2,2.5,1.2c1.2,0,2.4-0.7,2.9-1.8   c0.8-1.6,2.3-4.8,3.6-7.7l1.2-2.6c2.3,3.1,5.5,6.8,7,8.1c3.2,2.9,8.8-0.6,11-2.2l10.6-7.6l4.1,6.3l-2.8,4.1c-1,1.4-0.8,3.4,0.5,4.5   c0.6,0.6,1.4,0.8,2.2,0.8c0.9,0,1.9-0.4,2.5-1.1l5-5.7c1.3-1.5,1.4-3.6,0.4-5.3L83.9,63.8z M39.2,27.8c-2.3-3.2-1.5-7.7,1.7-10   c1.2-0.9,2.6-1.3,4.1-1.3c2.3,0,4.5,1.1,5.8,3c2.3,3.2,1.5,7.7-1.7,10c-1.2,0.9-2.6,1.3-4.1,1.3C42.7,30.9,40.5,29.7,39.2,27.8z    M49.5,42l7.3,0.5c-0.3,0.3-0.6,0.6-0.7,1c-0.4,0.9-0.5,1.8-0.1,2.7l-6.8-0.1c-1.5,0.1-3-0.3-4.4-1l-3.9-1.6l2.4-3.2l6.2,1.7   C49.5,42,49.5,42,49.5,42z M45,50.8c-1.9-1.1-3.5-0.9-4.5-0.6c-1.3,0.5-2.4,1.5-3.1,2.8c-1-0.8-1.8-1.5-2.3-1.9l5-6.8l4.1,1.7   c1.5,0.8,3.2,1.2,4.9,1.1l7.4,0.1c0.2,0.3,0.5,0.6,0.8,0.8l1.8,1.3l7.7,5.1l-8.4,5.9l-0.7,0.5l-1.2,0.8   C52.1,57.1,47.3,52.1,45,50.8z M21.1,68.7L9.4,75.3c-1,0.6-2.3,0.3-3-0.7c-0.7-1-0.5-2.3,0.5-3.1l8.7-6.8c0.1-0.1,0.2-0.2,0.2-0.3   l2.6-11.6c0.5,0.8,1.2,1.5,2.1,2.1l4.2,2.5L21.1,68.7z M25.3,71.5c-0.5,0-0.9-0.2-1.2-0.5c-0.3-0.3-0.5-0.7-0.5-1.2   c0-0.8,0.6-1.5,1.4-1.6l9.8-1.5L34,71.5L25.3,71.5z M36.6,78c-0.1,0-0.2,0-0.2,0c-0.6-0.1-1.1-0.4-1.5-0.9   c-0.4-0.5-0.6-1.2-0.4-1.9l1.9-11l4.5,2.7L38.5,77c0,0,0,0,0,0l-0.1,0.6C37.4,78.3,36.8,78.1,36.6,78z M46.8,72.5   c-1.3,2.8-2.8,6-3.6,7.7c-0.4,0.7-1.1,1.2-1.9,1.2c-0.7,0-1.3-0.3-1.7-0.8c-0.4-0.5-0.6-1.2-0.4-1.8l0.3-1.5c0,0,0,0,0,0l2.4-10.5   c0.1-0.2,0-0.5-0.2-0.6l-5.5-3.2c0,0,0,0,0,0L21,54c-1.2-0.7-1.9-1.7-2.3-2.9c0,0,0,0,0,0c-0.3-1.1-0.3-2.4,0.3-3.5   c0.7-1.5,1.9-3.2,3.5-5L30,32.2c1.1-1.4,2.8-2.3,4.6-2.3c1.2,0,2.4,0.4,3.4,1.1l2.5,1.8c0.1,0.1,0.2,0.1,0.3,0.1h10.7   c0.2,0,0.4-0.1,0.5-0.3l5.5-10.1c0.3-0.7,1-1.1,1.7-1.1c0.2,0,0.4,0,0.6,0.1c1,0.3,1.5,1.4,1.2,2.4L57,35.7c-0.6,1.7-2.2,2.9-4,2.9   h-9.5c-0.2,0-0.3,0.1-0.4,0.2L34,51c-0.2,0.2-0.1,0.5,0.1,0.7c4.5,3.7,13.3,10.8,14,11.4l0.1,0.1c0.5,0.5,1.6,1.7,0.8,4   c-0.2,0.5-0.5,1.4-1,2.6L46.8,72.5z M88.3,76.9l-5,5.7c-0.8,0.9-2.3,1-3.3,0.2c-0.9-0.8-1.1-2.1-0.4-3.1l3-4.4   c0.1-0.2,0.1-0.4,0-0.6l-4.6-7c-0.1-0.1-0.2-0.2-0.3-0.2c-0.1,0-0.3,0-0.4,0.1l-11.1,7.9c-2,1.5-7,4.6-9.7,2.3   c-1.5-1.3-5-5.4-7.2-8.5c0.3-0.7,0.5-1.3,0.7-1.7c1-2.9-0.5-4.4-1-5L49,62.4c0,0,0,0-0.1-0.1c0,0,0,0,0,0   c-0.6-0.6-6.6-5.4-10.5-8.6c0.5-1.2,1.5-2.1,2.6-2.5c1.1-0.4,2.4-0.2,3.6,0.5c2.2,1.4,8.1,7.2,16,16c0.1,0.1,0.2,0.2,0.4,0.2   c0.1,0,0.3,0,0.4-0.1c0.2-0.2,0.2-0.5,0-0.7c-1.2-1.3-2.6-2.9-4.1-4.5l1.1-0.7l0.7-0.5l9-6.4c0.1-0.1,0.2-0.3,0.2-0.4   S68.1,54.1,68,54l-8.3-5.5L58,47.3c-1.1-0.8-1.5-2.2-0.9-3.3c0.2-0.4,0.5-0.8,1-1.1l9.6-6.6c0.9-0.6,2-0.4,2.7,0.4   c0.7,0.9,0.6,2.1-0.3,2.8l-6.5,5.4c-0.1,0.1-0.2,0.3-0.2,0.5c0,0.2,0.1,0.3,0.3,0.4l4.1,2c3.6,1.8,6.8,4.5,9.2,7.9l6,8.5   c0,0,0,0,0,0l5.7,8.7C89.4,74.2,89.3,75.8,88.3,76.9z"/></g></svg>