<?xml version="1.0" ?><svg height = "48" width = "48" enable-background="new 0 0 500 500" version="1.1" viewBox="0 0 500 500" xml:space="preserve" xmlns="http://www.w3.org/2000/svg" xmlns:xlink="http://www.w3.org/1999/xlink"><g id="Layer_2"><g><g><g><g><g><circle cx="322.188" cy="195.342" fill="none" r="45.282" stroke="#474747" stroke-linecap="round" stroke-linejoin="round" stroke-miterlimit="10" stroke-width="15"/><path d="        M383.5,470v-9.748c0,0.203,1.044,0.422,1.336,0.615c4.066,2.687,8.9,3.971,13.433,3.971        c7.774-0.001,15.526-3.78,20.133-10.752l45.516-68.792c6.8-10.291,4.724-24.064-4.864-31.824l-91.672-74.205        c-1.453-1.176-3.006-2.189-4.618-2.973c-2.319-1.391-4.766-2.657-7.363-3.634h0.001c-21.384-7.82-44.943-7.833-66.267,0.307        l-7.062,2.724l-78.034,22.968l-69.802-22.564c-12.584-4.067-26.09,2.838-30.161,15.425        c-4.07,12.587,2.834,26.093,15.422,30.163l76.837,24.847c2.394,0.774,4.881,1.162,7.37,1.162c2.275,0,3.626-0.324,5.834-0.973        l49.961-14.968V470 M383.5,418.679v-63.929l27.521,22.276L383.5,418.679z" fill="none" stroke="#474747" stroke-linecap="round" stroke-linejoin="round" stroke-miterlimit="10" stroke-width="15"/></g><path d="       M398.794,396.091l-20.095,31.031c-7.212,11.137-4.433,25.973,6.322,33.744h0" fill="none" stroke="#474747" stroke-linecap="round" stroke-linejoin="round" stroke-miterlimit="10" stroke-width="15"/></g></g><rect fill="none" height="145.597" stroke="#474747" stroke-linecap="round" stroke-linejoin="round" stroke-miterlimit="10" stroke-width="15" transform="matrix(0.992 0.1266 -0.1266 0.992 15.7939 -17.8784)" width="218.341" x="39.411" y="42.543"/><line fill="none" stroke="#474747" stroke-linecap="round" stroke-linejoin="round" stroke-miterlimit="10" stroke-width="15" x1="115.644" x2="102.907" y1="321.919" y2="406.109"/><line fill="none" stroke="#474747" stroke-linecap="round" stroke-linejoin="round" stroke-miterlimit="10" stroke-width="15" x1="136.034" x2="123.069" y1="187.13" y2="272.833"/></g><circle cx="143.777" cy="114.342" fill="none" r="45.404" stroke="#474747" stroke-linecap="round" stroke-linejoin="round" stroke-miterlimit="10" stroke-width="15"/><line fill="none" stroke="#474747" stroke-linecap="round" stroke-linejoin="round" stroke-miterlimit="10" stroke-width="15" x1="113.249" x2="175.137" y1="143.499" y2="81.611"/></g></g><g id="Layer_1"/></svg>