<?xml version="1.0" ?><svg height="48" id="svg5015" version="1.1" viewBox="0 0 24 24" width="48" xmlns="http://www.w3.org/2000/svg" xmlns:cc="http://creativecommons.org/ns#" xmlns:dc="http://purl.org/dc/elements/1.1/" xmlns:inkscape="http://www.inkscape.org/namespaces/inkscape" xmlns:rdf="http://www.w3.org/1999/02/22-rdf-syntax-ns#" xmlns:sodipodi="http://sodipodi.sourceforge.net/DTD/sodipodi-0.dtd" xmlns:svg="http://www.w3.org/2000/svg"><defs id="defs5017"/><path d="m 1.2808609,5.4620544 c 0.917645,-2.780011 10.4248581,-4.2450233 11.5949651,-2.019697 0,0 1.016435,4.586762 1.107175,5.958107 0.130256,1.9640816 -0.297832,6.9496606 -4.4440661,7.7560756 -4.4594332,0.867885 -6.915268,-4.995823 -6.915268,-4.995823 0,0 -1.66844567,-5.7868716 -1.342806,-6.6993946 z" id="path6" stroke-miterlimit="4" style="fill:none;stroke:#000000;stroke-width:1.5;stroke-linecap:butt;stroke-linejoin:miter;stroke-miterlimit:4;stroke-dasharray:none;stroke-opacity:1"/><path d="m 4.4172459,8.3108524 c 0,0 1.7021072,-0.08489 1.9574965,-1.276947" id="path8" stroke-miterlimit="4" style="fill:none;stroke:#000000;stroke-width:1.5;stroke-linecap:round;stroke-linejoin:round;stroke-miterlimit:4;stroke-dasharray:none;stroke-opacity:1"/><path d="m 11.142253,7.1187914 c 0,0 -1.1913292,0.766168 -2.2985038,-0.510778" id="path10" stroke-miterlimit="4" style="fill:none;stroke:#000000;stroke-width:1.5;stroke-linecap:round;stroke-linejoin:round;stroke-miterlimit:4;stroke-dasharray:none;stroke-opacity:1"/><path d="m 6.5452458,12.822241 c 0,0 2.3833892,-2.468275 4.2560002,-0.681282" id="path12" stroke-miterlimit="4" style="fill:none;stroke:#000000;stroke-width:1.5;stroke-linecap:round;stroke-linejoin:round;stroke-miterlimit:4;stroke-dasharray:none;stroke-opacity:1"/><path d="m 14.481339,6.7119254 c 5.413667,0.209287 8.173189,1.953105 8.288077,3.5966706 0,0 -0.916181,4.607983 -1.384517,5.900297 -0.671037,1.849925 -3.069793,6.241303 -7.190415,5.311218 -1.964083,-0.443455 -3.0354,-1.939202 -3.620088,-3.467147" id="path14" stroke-miterlimit="4" style="fill:none;stroke:#000000;stroke-width:1.5;stroke-linecap:round;stroke-linejoin:round;stroke-miterlimit:4;stroke-dasharray:none;stroke-opacity:1"/><path d="m 15.14945,11.944843 c 0,0 0.09001,-0.956429 -1.099126,-0.687136" id="path16" stroke-miterlimit="4" style="fill:none;stroke:#000000;stroke-width:1.5;stroke-linecap:round;stroke-linejoin:round;stroke-miterlimit:4;stroke-dasharray:none;stroke-opacity:1"/><path d="m 17.581868,12.228772 c 0,0 1.040583,-0.961552 2.351922,0.10318" id="path18" stroke-miterlimit="4" style="fill:none;stroke:#000000;stroke-width:1.5;stroke-linecap:round;stroke-linejoin:round;stroke-miterlimit:4;stroke-dasharray:none;stroke-opacity:1"/><path d="m 17.288426,17.389245 c 0,0 -3.331037,0.822514 -3.966217,-1.68674" id="path20" stroke-miterlimit="4" style="fill:none;stroke:#000000;stroke-width:1.5;stroke-linecap:round;stroke-linejoin:round;stroke-miterlimit:4;stroke-dasharray:none;stroke-opacity:1"/></svg>