<?xml version="1.0" encoding="UTF-8"?>
<svg xmlns="http://www.w3.org/2000/svg" xmlns:xlink="http://www.w3.org/1999/xlink" width="48" height="48" viewBox="0 0 328 440" version="1.1">
<defs>
<clipPath id="clip0">
  <rect width="328" height="440"/>
</clipPath>
</defs>
<g id="surface0" clip-path="url(#clip0)">
<path style="fill: none; stroke-width: 0.1; stroke-linecap: butt; stroke-linejoin: miter; stroke: rgb(100%,100%,100%); opacity: 1;stroke-miterlimit: 10;" d="M 0 0 L 328 0 L 328 440 L 0 440 L 0 0 Z M 0 0 " transform="matrix(1,0,0,1,0,0)"/>
<path style="stroke: none; fill-rule: nonzero; fill: rgb(100%,100%,100%); opacity: 1;" d="M 0 0 L 328 0 L 328 440 L 0 440 L 0 0 Z M 0 0 "/>
<path style="fill: none; stroke-width: 0.1; stroke-linecap: butt; stroke-linejoin: miter; stroke: rgb(0%,0%,0%); opacity: 1;stroke-miterlimit: 10;" d="M 153.546936 2.729523 C 166.258759 0.665237 179.671783 2.645081 191.050354 8.758362 C 207.132111 17.007446 218.999664 32.98584 222.19722 50.783127 C 224.84375 64.861389 222.290421 79.883438 214.988388 92.222733 C 207.192856 105.57338 194.020966 115.712936 179.058456 119.665695 C 161.723129 124.387375 142.248856 120.987396 127.816803 110.190353 C 115.154251 101.021072 106.431564 86.630386 104.11377 71.173828 C 102.267197 58.646729 104.125732 45.462265 110.115433 34.239014 C 118.519516 17.650009 135.182755 5.601334 153.546936 2.729523 Z M 153.546936 2.729523 " transform="matrix(1,0,0,1,0,0)"/>
<path style="stroke: none; fill-rule: nonzero; fill: rgb(0%,0%,0%); opacity: 1;" d="M 153.546936 2.729523 C 166.258759 0.665237 179.671783 2.645081 191.050354 8.758362 C 207.132111 17.007446 218.999664 32.98584 222.19722 50.783127 C 224.84375 64.861389 222.290421 79.883438 214.988388 92.222733 C 207.192856 105.57338 194.020966 115.712936 179.058456 119.665695 C 161.723129 124.387375 142.248856 120.987396 127.816803 110.190353 C 115.154251 101.021072 106.431564 86.630386 104.11377 71.173828 C 102.267197 58.646729 104.125732 45.462265 110.115433 34.239014 C 118.519516 17.650009 135.182755 5.601334 153.546936 2.729523 Z M 153.546936 2.729523 "/>
<path style="fill: none; stroke-width: 0.1; stroke-linecap: butt; stroke-linejoin: miter; stroke: rgb(0%,0%,0%); opacity: 1;stroke-miterlimit: 10;" d="M 110.822159 134.575912 C 115.716064 131.832764 121.377457 130.831757 126.934128 130.753113 C 150.6073 130.736206 174.280899 130.764816 197.954514 130.739319 C 203.943024 130.7117 210.05687 131.711792 215.38707 134.558487 C 219.474533 136.640503 222.847275 139.813171 226.113434 142.978714 C 252.256729 169.143234 278.432953 195.275452 304.564621 221.451691 C 309.020233 225.815506 312.503708 231.65126 312.275223 238.080811 C 312.148514 247.952744 303.817032 256.65799 294.129578 257.842255 C 287.644287 258.798981 281.059784 256.123825 276.474487 251.578293 C 259.621674 234.794098 242.836761 217.940475 226.001709 201.138351 C 225.99408 216.342514 226.005997 231.546799 225.995789 246.751617 C 183.913925 246.744476 141.832367 246.752548 99.750671 246.747559 C 99.743317 231.625076 99.756531 216.503143 99.744217 201.381332 C 86.383423 215.144516 72.742172 228.635483 59.301178 242.321182 C 54.255844 247.000107 50.013336 252.887589 43.543106 255.724426 C 37.461166 258.572754 29.999207 258.459015 24.187073 254.993286 C 17.336227 251.204742 13.184952 242.975906 14.554184 235.218018 C 15.40683 229.590469 18.689102 224.633224 22.788834 220.81102 C 46.849274 196.881821 70.561447 172.613358 94.658585 148.719177 C 99.848938 143.801132 104.38826 137.967056 110.822159 134.575912 Z M 110.822159 134.575912 " transform="matrix(1,0,0,1,0,0)"/>
<path style="stroke: none; fill-rule: nonzero; fill: rgb(0%,0%,0%); opacity: 1;" d="M 110.822159 134.575912 C 115.716064 131.832764 121.377457 130.831757 126.934128 130.753113 C 150.6073 130.736206 174.280899 130.764816 197.954514 130.739319 C 203.943024 130.7117 210.05687 131.711792 215.38707 134.558487 C 219.474533 136.640503 222.847275 139.813171 226.113434 142.978714 C 252.256729 169.143234 278.432953 195.275452 304.564621 221.451691 C 309.020233 225.815506 312.503708 231.65126 312.275223 238.080811 C 312.148514 247.952744 303.817032 256.65799 294.129578 257.842255 C 287.644287 258.798981 281.059784 256.123825 276.474487 251.578293 C 259.621674 234.794098 242.836761 217.940475 226.001709 201.138351 C 225.99408 216.342514 226.005997 231.546799 225.995789 246.751617 C 183.913925 246.744476 141.832367 246.752548 99.750671 246.747559 C 99.743317 231.625076 99.756531 216.503143 99.744217 201.381332 C 86.383423 215.144516 72.742172 228.635483 59.301178 242.321182 C 54.255844 247.000107 50.013336 252.887589 43.543106 255.724426 C 37.461166 258.572754 29.999207 258.459015 24.187073 254.993286 C 17.336227 251.204742 13.184952 242.975906 14.554184 235.218018 C 15.40683 229.590469 18.689102 224.633224 22.788834 220.81102 C 46.849274 196.881821 70.561447 172.613358 94.658585 148.719177 C 99.848938 143.801132 104.38826 137.967056 110.822159 134.575912 Z M 110.822159 134.575912 "/>
<path style="fill: none; stroke-width: 0.1; stroke-linecap: butt; stroke-linejoin: miter; stroke: rgb(0%,0%,0%); opacity: 1;stroke-miterlimit: 10;" d="M 58.099274 312.108673 C 71.986649 298.041046 86.042953 284.135315 100.000076 270.134888 C 115.898407 286.061752 131.864746 301.921631 147.711517 317.900055 C 136.110245 329.517578 124.502319 341.12851 112.88205 352.727448 C 125.103485 364.616455 137.100327 376.740189 149.168335 388.788956 C 153.354599 393.083496 156.121948 399.008011 155.776047 405.089462 C 155.720947 414.594513 148.194931 423.346481 138.893387 425.076233 C 132.991913 426.372284 126.75856 424.431732 122.002213 420.876846 C 118.360443 418.263489 115.688034 414.612305 112.439987 411.572815 C 95.317627 393.679443 78.046616 375.930328 60.942841 358.019089 C 49.973969 345.842987 47.077438 325.151825 58.099274 312.108673 Z M 58.099274 312.108673 " transform="matrix(1,0,0,1,0,0)"/>
<path style="stroke: none; fill-rule: nonzero; fill: rgb(0%,0%,0%); opacity: 1;" d="M 58.099274 312.108673 C 71.986649 298.041046 86.042953 284.135315 100.000076 270.134888 C 115.898407 286.061752 131.864746 301.921631 147.711517 317.900055 C 136.110245 329.517578 124.502319 341.12851 112.88205 352.727448 C 125.103485 364.616455 137.100327 376.740189 149.168335 388.788956 C 153.354599 393.083496 156.121948 399.008011 155.776047 405.089462 C 155.720947 414.594513 148.194931 423.346481 138.893387 425.076233 C 132.991913 426.372284 126.75856 424.431732 122.002213 420.876846 C 118.360443 418.263489 115.688034 414.612305 112.439987 411.572815 C 95.317627 393.679443 78.046616 375.930328 60.942841 358.019089 C 49.973969 345.842987 47.077438 325.151825 58.099274 312.108673 Z M 58.099274 312.108673 "/>
<path style="fill: none; stroke-width: 0.1; stroke-linecap: butt; stroke-linejoin: miter; stroke: rgb(0%,0%,0%); opacity: 1;stroke-miterlimit: 10;" d="M 177.997711 317.862152 C 193.922592 301.961594 209.821365 286.035217 225.742676 270.13121 C 238.770599 283.16626 251.787552 296.211594 264.972183 309.08606 C 271.029129 314.678024 274.667603 322.78653 274.528885 331.058929 C 274.905319 340.810593 271.312607 350.637939 264.837906 357.924652 C 247.379044 376.121078 229.935898 394.33429 212.462158 412.517471 C 207.767532 417.54158 202.880966 423.125458 195.892456 424.782761 C 187.384476 427.230362 177.7966 423.097855 173.236664 415.63385 C 169.148392 409.420746 168.929306 401.033356 172.494324 394.536377 C 175.319611 389.258423 180.095749 385.494171 184.146973 381.217911 C 193.967316 371.866562 203.423874 362.140457 213.028244 352.567947 C 201.053329 341.307999 189.705505 329.398041 177.997711 317.862152 Z M 177.997711 317.862152 " transform="matrix(1,0,0,1,0,0)"/>
<path style="stroke: none; fill-rule: nonzero; fill: rgb(0%,0%,0%); opacity: 1;" d="M 177.997711 317.862152 C 193.922592 301.961594 209.821365 286.035217 225.742676 270.13121 C 238.770599 283.16626 251.787552 296.211594 264.972183 309.08606 C 271.029129 314.678024 274.667603 322.78653 274.528885 331.058929 C 274.905319 340.810593 271.312607 350.637939 264.837906 357.924652 C 247.379044 376.121078 229.935898 394.33429 212.462158 412.517471 C 207.767532 417.54158 202.880966 423.125458 195.892456 424.782761 C 187.384476 427.230362 177.7966 423.097855 173.236664 415.63385 C 169.148392 409.420746 168.929306 401.033356 172.494324 394.536377 C 175.319611 389.258423 180.095749 385.494171 184.146973 381.217911 C 193.967316 371.866562 203.423874 362.140457 213.028244 352.567947 C 201.053329 341.307999 189.705505 329.398041 177.997711 317.862152 Z M 177.997711 317.862152 "/>
</g>
</svg>
