<?xml version="1.0" ?><svg height = "48" width = "48" style="enable-background:new 0 0 128 128;" version="1.1" viewBox="0 0 128 128" xml:space="preserve" xmlns="http://www.w3.org/2000/svg" xmlns:xlink="http://www.w3.org/1999/xlink"><g id="_x35_0_Bandage"/><g id="_x34_9_Plaster"/><g id="_x34_8_Fire_Truck"/><g id="_x34_7_Gas_Mask"/><g id="_x34_6_Generator"/><g id="_x34_5_Torch_Light"/><g id="_x34_4_Fire_Alarm"/><g id="_x34_3_Traffic_Cone"/><g id="_x34_2_Lifeboat"/><g id="_x34_1_Oxygen"/><g id="_x34_0_Glass_Hammer"/><g id="_x33_9_Flare"/><g id="_x33_8_Blood_Transfusion"/><g id="_x33_7_Road_Block"/><g id="_x33_6_Rescue"/><g id="_x33_5_Megaphone"/><g id="_x33_4_Nurse"/><g id="_x33_3_Doctor"/><g id="_x33_2_Ambulance"/><g id="_x33_1_Sprinkler"/><g id="_x33_0_Fire_Hydrant"/><g id="Layer_29"/><g id="Layer_28"/><g id="_x32_7_Bucket"/><g id="_x32_6_Hard_Hat"/><g id="_x32_5_Emergency_Call"/><g id="Layer_24"/><g id="_x32_3_Axe"/><g id="_x32_2_First_Aid_Kit"/><g id="_x32_1_Ladder"/><g id="_x32_0_Hazard_Sign"/><g id="_x31_9_Life_Jacket"/><g id="_x31_8_Siren"/><g id="_x31_7_Alert"/><g id="_x31_6_Hospital"/><g id="_x31_5_Helicopter"/><g id="_x31_4_Walkie_Talkies"/><g id="_x31_3_Defibrillator"/><g id="_x31_2_Stretcher"/><g id="_x31_1_Medicine"/><g id="_x31_0_Match_Box"/><g id="_x30_9_Panic_Button"><g><g><path d="M64,103.281c-21.676,0-39.31-17.657-39.31-39.36c0-6.259,1.424-12.244,4.232-17.786c0.499-0.985,1.7-1.379,2.688-0.88     c0.985,0.5,1.379,1.703,0.88,2.688c-2.522,4.977-3.801,10.353-3.801,15.978c0,19.498,15.84,35.36,35.31,35.36     s35.31-15.863,35.31-35.36C99.31,44.422,83.47,28.56,64,28.56c-7.921,0-15.404,2.565-21.643,7.419     c-0.872,0.676-2.129,0.521-2.807-0.351c-0.679-0.872-0.521-2.128,0.35-2.807c6.947-5.405,15.281-8.262,24.1-8.262     c21.676,0,39.31,17.657,39.31,39.361C103.31,85.624,85.676,103.281,64,103.281z"/><path d="M34.92,42.72c-0.53,0-1.04-0.21-1.42-0.59c-0.37-0.37-0.58-0.88-0.58-1.41c0-0.53,0.21-1.04,0.58-1.41     c0.47-0.47,1.16-0.68,1.81-0.55c0.13,0.02,0.25,0.06,0.37,0.11c0.12,0.05,0.24,0.11,0.351,0.19c0.109,0.07,0.21,0.15,0.3,0.25     c0.37,0.37,0.59,0.88,0.59,1.41c0,0.53-0.22,1.04-0.59,1.41c-0.09,0.1-0.19,0.18-0.3,0.25c-0.11,0.07-0.23,0.14-0.351,0.19     s-0.24,0.08-0.37,0.11C35.18,42.71,35.05,42.72,34.92,42.72z"/><path d="M64,87.269c-12.858,0-23.32-10.474-23.32-23.349S51.142,40.571,64,40.571S87.32,51.046,87.32,63.92     S76.858,87.269,64,87.269z M64,44.571c-10.653,0-19.32,8.68-19.32,19.349S53.347,83.269,64,83.269s19.32-8.68,19.32-19.349     S74.653,44.571,64,44.571z"/><g><path d="M64,76.6c-0.53,0-1.04-0.22-1.41-0.59c-0.1-0.09-0.18-0.2-0.25-0.3c-0.08-0.11-0.14-0.23-0.19-0.35      c-0.05-0.12-0.09-0.25-0.109-0.37c-0.03-0.13-0.04-0.27-0.04-0.4c0-0.52,0.21-1.04,0.59-1.41c0.74-0.74,2.08-0.75,2.82,0      c0.38,0.37,0.59,0.89,0.59,1.41c0,0.53-0.21,1.05-0.59,1.42C65.04,76.38,64.53,76.6,64,76.6z"/><path d="M64,69.351c-1.104,0-2-0.896-2-2V53.246c0-1.104,0.896-2,2-2s2,0.896,2,2v14.105C66,68.455,65.104,69.351,64,69.351z"/></g></g><g><path d="M124,41.182c-1.104,0-2-0.896-2-2c0-8.907-3.463-17.28-9.752-23.577c-3.347-3.35-7.266-5.899-11.649-7.574     c-1.032-0.395-1.549-1.55-1.154-2.582c0.395-1.032,1.552-1.55,2.582-1.154c4.913,1.878,9.305,4.732,13.052,8.484     C122.121,19.831,126,29.208,126,39.182C126,40.286,125.104,41.182,124,41.182z"/><path d="M95.01,6c-0.53,0-1.04-0.21-1.42-0.59c-0.09-0.09-0.17-0.19-0.25-0.3C93.27,5,93.21,4.89,93.16,4.77     c-0.051-0.12-0.091-0.25-0.11-0.38C93.02,4.26,93.01,4.13,93.01,4c0-0.13,0.01-0.26,0.04-0.39c0.02-0.13,0.06-0.26,0.11-0.38     C93.21,3.11,93.27,3,93.34,2.89c0.08-0.11,0.16-0.21,0.25-0.3c0.75-0.75,2.09-0.75,2.83,0c0.1,0.09,0.18,0.19,0.25,0.3     C96.74,3,96.8,3.11,96.85,3.23c0.05,0.12,0.09,0.25,0.12,0.38C96.99,3.74,97.01,3.87,97.01,4c0,0.53-0.22,1.04-0.59,1.41     C96.05,5.79,95.54,6,95.01,6z"/><path d="M108.865,41.181c-1.104,0-2-0.896-2-2c0-4.867-1.887-9.436-5.313-12.867c-3.426-3.43-7.987-5.318-12.846-5.318     c-0.001,0-0.002,0-0.004,0c-1.104,0-2-0.895-2-2s0.896-2,2-2c0.001,0,0.003,0,0.004,0c5.928,0,11.494,2.305,15.676,6.492     c4.181,4.186,6.482,9.759,6.482,15.693C110.865,40.286,109.97,41.181,108.865,41.181z"/></g><g><path d="M39.293,126c-9.962,0-19.327-3.884-26.371-10.938C5.879,108.01,2,98.633,2,88.659c0-1.104,0.896-2,2-2s2,0.896,2,2     c0,8.906,3.463,17.279,9.752,23.577C22.04,118.532,30.401,122,39.293,122c0.001,0,0.001,0,0.002,0c1.104,0,2,0.896,2,2     s-0.896,2-2,2C39.294,126,39.294,126,39.293,126z"/><path d="M29.216,108.156c-0.339,0-0.683-0.086-0.998-0.268c-1.673-0.966-3.221-2.155-4.601-3.536     c-4.181-4.186-6.482-9.759-6.482-15.693c0-1.104,0.896-2,2-2s2,0.896,2,2c0,4.867,1.887,9.436,5.313,12.867     c1.132,1.132,2.4,2.107,3.77,2.897c0.957,0.552,1.285,1.775,0.733,2.732C30.58,107.797,29.907,108.156,29.216,108.156z"/><path d="M34.26,111.5c-0.13,0-0.27-0.01-0.39-0.04c-0.13-0.02-0.261-0.06-0.38-0.11c-0.12-0.05-0.24-0.11-0.341-0.18     c-0.109-0.08-0.22-0.16-0.31-0.25c-0.37-0.37-0.58-0.89-0.58-1.42c0-0.52,0.21-1.04,0.58-1.41c0.09-0.09,0.2-0.18,0.31-0.25     c0.101-0.07,0.221-0.13,0.341-0.18c0.119-0.05,0.25-0.09,0.38-0.12c0.25-0.05,0.52-0.05,0.779,0c0.12,0.03,0.25,0.07,0.37,0.12     c0.12,0.05,0.24,0.11,0.351,0.18c0.109,0.07,0.21,0.16,0.3,0.25c0.37,0.37,0.58,0.89,0.58,1.41c0,0.13-0.01,0.26-0.03,0.39     c-0.03,0.13-0.07,0.26-0.12,0.38c-0.05,0.12-0.109,0.23-0.18,0.34s-0.16,0.21-0.25,0.31c-0.09,0.09-0.19,0.17-0.3,0.25     c-0.11,0.07-0.23,0.13-0.351,0.18c-0.12,0.05-0.25,0.09-0.37,0.11C34.52,111.49,34.39,111.5,34.26,111.5z"/></g></g></g><g id="_x30_8_Crane_Truck"/><g id="_x30_7_Swiss_Knife"/><g id="_x30_6_Airdrop"/><g id="_x30_5_Whistle"/><g id="_x30_4_Police_Car"/><g id="_x30_3_Fire"/><g id="_x30_2_Fire_Hose"/><g id="_x30_1_Fire_Extinguisher"/></svg>