<?xml version="1.0" ?><svg width = "48" height = "48" data-name="Layer 1" id="Layer_1" viewBox="0 0 32 32" xmlns="http://www.w3.org/2000/svg"><title/><g id="BG"><rect fill="none" height="32" width="32"/></g><path d="M29,6.5H24c-.3,0-.4.2-.5.4a2.6,2.6,0,0,1-1.2-.5l-4.6-3A1.6,1.6,0,0,0,16.5,3h-.6l-4.7-.4H6.6A1.6,1.6,0,0,0,5.5,3a1.2,1.2,0,0,0-.3.9v.2A2.4,2.4,0,0,0,7.5,6h3.6l.8.2,2.7.7.4.2.9.6,1.4.9.3.3-2.1-.3a1.7,1.7,0,0,0-1.8,1.1,2,2,0,0,0,.1,1.7,1.7,1.7,0,0,0,1.3,1l2.2.6,2.6.7,1.1.2,1.1-.2,1.5-.3a1.1,1.1,0,0,0,.3.7,2.1,2.1,0,0,0,1.1.4h4a.5.5,0,0,0,.5-.5V7A.5.5,0,0,0,29,6.5Zm-7.1,6.3a3.7,3.7,0,0,1-1.8-.1l-2.5-.6-2.3-.6a1.3,1.3,0,0,1-.7-.6,1.1,1.1,0,0,1,0-.8.8.8,0,0,1,.8-.5h0l3,.4.5-.2a1.1,1.1,0,0,0,.1-.5l-.3-.5a2.2,2.2,0,0,0-.9-1l-1.4-1-.8-.5-.8-.4-2.7-.6-.7-.2H7.5A1.3,1.3,0,0,1,6.2,3.9a.4.4,0,0,1,.1-.3H11l4.8.4h.6l.8.2,4.5,3a4.5,4.5,0,0,0,1.8.7v4.5Zm6.6.7H24.6V7.5h4Z"/><path d="M12.2,18.3A2.6,2.6,0,0,0,9.7,16H5.3a2.6,2.6,0,0,0-2.5,2.3v1.9a2.4,2.4,0,0,0,1.8,2.7V29a.5.5,0,0,0,.5.5h5a.5.5,0,0,0,.5-.5V22.9a2.4,2.4,0,0,0,1.8-2.7Zm-1.7,3.5V20a.5.5,0,0,0-1,0v8.5H8v-5a.5.5,0,0,0-1,0v5H5.5V20a.5.5,0,0,0-.5-.5.5.5,0,0,0-.5.5v1.8a1.3,1.3,0,0,1-.8-1.5V18.4A1.5,1.5,0,0,1,5.3,17H9.7a1.5,1.5,0,0,1,1.5,1.4v1.9A1.3,1.3,0,0,1,10.5,21.8Z"/><path d="M7.5,15.5a3,3,0,0,0,0-6,3,3,0,0,0,0,6Zm0-5a2,2,0,1,1-2,2A2,2,0,0,1,7.5,10.5Z"/><path d="M19,26.5H16a2.1,2.1,0,0,0-1.1.4,2.1,2.1,0,0,0-.4,1.1v1a.5.5,0,0,0,.5.5h5a.5.5,0,0,0,.5-.5V28a2.1,2.1,0,0,0-.4-1.1A2.1,2.1,0,0,0,19,26.5Zm.5,2h-4V28c0-.1.1-.3.1-.4h3.8c0,.1.1.3.1.4Z"/><path d="M29.3,23.6l-6.5-3.8.2-.3a1.7,1.7,0,0,0,.1-1.2,1.3,1.3,0,0,0-.7-.9l-1.7-1a1.7,1.7,0,0,0-1.2-.1,1.5,1.5,0,0,0-.9.7l-2,3.4a1.7,1.7,0,0,0-.1,1.2,1.5,1.5,0,0,0,.7.9l1.7,1,.8.2h.4a1.5,1.5,0,0,0,.9-.7l.3-.5,6.5,3.8h.3c.2,0,.3-.1.3-.2l1-1.7A.5.5,0,0,0,29.3,23.6Zm-9.5-.9h-.4l-1.7-1-.2-.3a.3.3,0,0,1,0-.4l2-3.4.3-.3h.4l1.7,1c.1,0,.2.1.2.3s.1.2,0,.4l-2,3.4Zm8,2.3-6-3.5.5-.8,6,3.5Z"/></svg>