<?xml version="1.0" ?><svg height = "48" width = "48" viewBox="0 0 512 512" xmlns="http://www.w3.org/2000/svg"><g data-name="Out line" id="Out_line"><path d="M488,208h-8V48a32.03635,32.03635,0,0,0-32-32,79.84456,79.84456,0,0,0-51.05981,18.36133A32.03775,32.03775,0,0,0,368,16a79.86119,79.86119,0,0,0-78.11328,62.70752c-.62488-.04834-1.25318-.07959-1.88672-.07959a23.85309,23.85309,0,0,0-12.44775,3.46875,23.97983,23.97983,0,0,0-39.1045,0A23.85309,23.85309,0,0,0,224,78.62793a24.113,24.113,0,0,0-6.54126.9043,23.98886,23.98886,0,0,0-37.011,2.56445,24.02511,24.02511,0,0,0-29.418,3.55957l-1.373,1.37305a24.02629,24.02629,0,0,0-3.56006,29.418A23.9709,23.9709,0,0,0,142.126,152a23.95761,23.95761,0,0,0,0,32A23.98178,23.98178,0,0,0,152,222.62378V296h16V224H400V480H256v16H488a8.00008,8.00008,0,0,0,8-8V216A8.00008,8.00008,0,0,0,488,208ZM448,459.31348,468.68628,480H427.31372Zm8-14.62744V240H440V444.686l-24,24V224h64V468.686ZM448,32a16.01833,16.01833,0,0,1,16,16V208H384V192h25.37012a24,24,0,1,0,0-48H384V128h25.37012a24,24,0,1,0,0-48h-23.3606A63.89631,63.89631,0,0,1,448,32ZM392.00977,176a24.20353,24.20353,0,0,0,0-16h17.36035a8.00191,8.00191,0,0,1,5.66308,13.65332,8.03688,8.03688,0,0,1-2.60937,1.74219A7.89717,7.89717,0,0,1,409.37012,176Zm0-64a24.20353,24.20353,0,0,0,0-16h17.36035a8.00191,8.00191,0,0,1,5.66308,13.65332,8.03688,8.03688,0,0,1-2.60937,1.74219A7.89717,7.89717,0,0,1,409.37012,112ZM368,32a16.01651,16.01651,0,0,1,15.99707,15.94092,79.611,79.611,0,0,0-15.50879,39.18017c-.00879.08106-.0166.16114-.02295.24219l.00342-.04394c-.01709.15332-.03271.30761-.04443.45605a7.999,7.999,0,0,0,2.31933,6.28223l4.28955,4.28906a8.00653,8.00653,0,0,1,0,11.30664l-4.68994,4.68945A7.99905,7.99905,0,0,0,368,120v32a7.99905,7.99905,0,0,0,2.34326,5.65723l4.68994,4.68945a8.00653,8.00653,0,0,1,0,11.30664l-4.68994,4.68945A7.99905,7.99905,0,0,0,368,184v24H304V192h25.37012a24,24,0,1,0,0-48H304V128h25.37012a24,24,0,1,0,0-48h-23.3606A63.89631,63.89631,0,0,1,368,32ZM312.00977,176a24.20353,24.20353,0,0,0,0-16h17.36035a8.00191,8.00191,0,0,1,5.66308,13.65332,8.03688,8.03688,0,0,1-2.60937,1.74219A7.89717,7.89717,0,0,1,329.37012,176Zm0-64a24.20353,24.20353,0,0,0,0-16h17.36035a8.00191,8.00191,0,0,1,5.66308,13.65332,8.03688,8.03688,0,0,1-2.60937,1.74219A7.89717,7.89717,0,0,1,329.37012,112ZM160,176a8,8,0,0,1,0-16,8,8,0,0,0,0-16,8,8,0,0,1,0-16,8.0001,8.0001,0,0,0,5.65674-13.65723l-4.68653-4.68652a8.00771,8.00771,0,0,1,0-11.3125l1.373-1.37305a7.99827,7.99827,0,0,1,11.31348,0l4.68652,4.68653A8.00038,8.00038,0,0,0,192,96a7.97219,7.97219,0,0,1,11.87738-6.978,24.02354,24.02354,0,0,0-1.7807,27.4253A23.9709,23.9709,0,0,0,198.126,152a23.95761,23.95761,0,0,0,0,32,23.95221,23.95221,0,0,0-4.74976,24H160a8,8,0,0,1,0-16,8,8,0,0,0,0-16Zm56,32a8,8,0,0,1,0-16,8,8,0,0,0,0-16,8,8,0,0,1,0-16,8,8,0,0,0,0-16,8,8,0,0,1,0-16,8.0001,8.0001,0,0,0,5.65674-13.65723l-4.68653-4.68652a8.00771,8.00771,0,0,1,0-11.3125l1.373-1.37305a8.00889,8.00889,0,0,1,11.31348,0l4.68652,4.68653A8.00038,8.00038,0,0,0,248,96a8,8,0,0,1,16,0,8.00038,8.00038,0,0,0,13.65674,5.65723l4.68652-4.68653a8.00063,8.00063,0,0,1,11.31348,0l1.373,1.37305.00024-.00024.00317.00317a8.00653,8.00653,0,0,1,0,11.30664l-4.68994,4.68945A7.99905,7.99905,0,0,0,288,120v32a7.99905,7.99905,0,0,0,2.34326,5.65723l4.68994,4.68945a8.00653,8.00653,0,0,1,0,11.30664l-4.68994,4.68945A7.99905,7.99905,0,0,0,288,184v24H264V195.314l21.65674-21.65673-11.31348-11.31446L264,172.68628V155.314l21.65674-21.65673-11.31348-11.31446L264,132.68628V112H248v20.68628l-10.34326-10.34351-11.31348,11.31446L248,155.314v17.37232l-10.34326-10.34351-11.31348,11.31446L248,195.314V208H216Z"/><path d="M32,355.61865l14.46338-14.46338a24.79932,24.79932,0,0,1,35.07373,0,40.71718,40.71718,0,0,0,47.28125,7.54981l15.10821-7.6499c.04749.77587.07343,1.5542.07343,2.33544V352h16v-8.60938a55.04068,55.04068,0,0,0-21.91211-43.82421,38.90133,38.90133,0,0,1-14.355-21.62012l-1.56305-6.2522A7.99745,7.99745,0,0,0,128,264V232a8.00008,8.00008,0,0,0-8-8H56a8.00008,8.00008,0,0,0-8,8v32a7.99745,7.99745,0,0,0,5.83014,7.69409l-1.563,6.2522a38.89561,38.89561,0,0,1-14.355,21.61914A55.044,55.044,0,0,0,16,343.39062V488a8.00008,8.00008,0,0,0,8,8H128V480H32ZM64,240h48v16H64ZM47.5127,312.36523a54.94577,54.94577,0,0,0,20.27685-30.53808L70.24609,272h35.50782l2.45654,9.82715a54.94977,54.94977,0,0,0,20.27734,30.53906,38.75971,38.75971,0,0,1,11.02289,12.99024l-17.92035,9.07421a24.75124,24.75124,0,0,1-28.74023-4.58984,40.8,40.8,0,0,0-57.7002,0l-1.044,1.04395A38.9207,38.9207,0,0,1,47.5127,312.36523Z"/><path d="M252.958,386.85352a29.99419,29.99419,0,0,0-49.05762-10.06836L201.895,378.791a13.93925,13.93925,0,0,1-3.21368,2.39306,55.79139,55.79139,0,0,1,22.11846-46.78369l-9.5996-12.80078a71.88721,71.88721,0,0,0-28.55884,57.67627c-.179-.16162-.36408-.3125-.53638-.48486l-2.00684-2.00684A29.99338,29.99338,0,0,0,131.042,386.85449a85.05652,85.05652,0,0,0-1.71631,58.419l11.438,34.3164A23.97046,23.97046,0,0,0,163.53223,496h5.84033a23.84254,23.84254,0,0,0,16.9707-7.0293,8.00889,8.00889,0,0,1,11.31348,0A23.84254,23.84254,0,0,0,214.62744,496h5.84033a23.97008,23.97008,0,0,0,22.76856-16.41113l11.438-34.31446A85.062,85.062,0,0,0,252.958,386.85352Zm-13.4624,53.36132-11.438,34.31446A7.99031,7.99031,0,0,1,220.46777,480h-5.84033a7.94677,7.94677,0,0,1-5.65723-2.34375,24.02783,24.02783,0,0,0-33.94042,0A7.94677,7.94677,0,0,1,169.37256,480h-5.84033a7.99069,7.99069,0,0,1-7.58985-5.46973l-11.438-34.3164a69.03886,69.03886,0,0,1,1.39307-47.417,13.99345,13.99345,0,0,1,22.88672-4.69922l2.00635,2.00683.001.001a30.02862,30.02862,0,0,0,42.418-.001l2.00489-2.00586a13.99426,13.99426,0,0,1,22.88818,4.69727A69.04436,69.04436,0,0,1,239.49561,440.21484Z"/></g></svg>