<?xml version="1.0" ?><!DOCTYPE svg  PUBLIC '-//W3C//DTD SVG 1.1//EN'  'http://www.w3.org/Graphics/SVG/1.1/DTD/svg11.dtd'><svg enable-background="new 0 0 67 67" height = "48" width = "48" id="Layer_1" version="1.1" viewBox="0 0 67 67" xml:space="preserve" xmlns="http://www.w3.org/2000/svg" xmlns:xlink="http://www.w3.org/1999/xlink"><g><path d="M29.5,21.7c-1.3,0-2.4-1.1-2.4-2.4c0-0.6-0.4-1-1-1s-1,0.4-1,1c0,2,1.4,3.7,3.3,4.2v1.7c0,0.6,0.4,1,1,1s1-0.4,1-1v-1.6   c2-0.4,3.6-2.2,3.6-4.3c0-2.4-2-4.4-4.4-4.4c-1.3,0-2.4-1.1-2.4-2.4c0-1.3,1-2.4,2.3-2.4c0,0,0,0,0.1,0s0,0,0.1,0   c1.3,0,2.3,1.1,2.3,2.4c0,0.6,0.4,1,1,1s1-0.4,1-1c0-2.1-1.5-3.8-3.4-4.3V6.6c0-0.6-0.4-1-1-1s-1,0.4-1,1v1.6   c-1.9,0.5-3.4,2.2-3.4,4.3c0,2.4,2,4.4,4.4,4.4c1.3,0,2.4,1.1,2.4,2.4C31.9,20.6,30.9,21.7,29.5,21.7z"/><path d="M15.8,60.1v5.4c0,0.6,0.4,1,1,1h6c0.4,0,0.7-0.2,0.9-0.6l2.4-5.2h10.1l2.4,5.2c0.2,0.4,0.5,0.6,0.9,0.6h6c0.6,0,1-0.4,1-1   v-5.4c6.5-1.6,11.6-6.4,13.9-12.3h5.1c0.6,0,1-0.4,1-1V33.2c0-0.6-0.4-1-1-1h-5.6c-1.2-2.7-3-5-5.3-6.9l2.7-7.9   c0.2-0.6-0.3-1.3-0.9-1.3c-3.9,0-7.5,1.9-9.6,5.1c-0.9-0.2-1.8-0.4-2.6-0.5c0.5-1.5,0.8-3.1,0.8-4.7c0-8.5-6.9-15.4-15.4-15.4   S14.2,7.4,14.2,15.9c0,1.9,0.4,3.7,1,5.3c-8.3,2.3-14.6,10-14.6,19.4C0.5,49.8,6.9,57.9,15.8,60.1z M29.5,2.5   c7.4,0,13.4,6,13.4,13.4s-6,13.4-13.4,13.4s-13.4-6-13.4-13.4S22.2,2.5,29.5,2.5z M15.9,23.1c1.4,2.6,3.5,4.8,6,6.2h-3.7   c-0.6,0-1,0.4-1,1s0.4,1,1,1h22.5c0.6,0,1-0.4,1-1s-0.4-1-1-1h-3.7c2.7-1.5,4.9-3.9,6.3-6.7c1.2,0.1,2.4,0.3,3.6,0.7   c0.4,0.1,0.9-0.1,1.1-0.4c1.5-2.5,4-4.2,6.9-4.6l-2.4,7.1c-0.1,0.4,0,0.8,0.3,1.1c2.4,1.9,4.3,4.4,5.5,7.2c0.2,0.4,0.5,0.6,0.9,0.6   h5.2v11.7h-4.8c-0.4,0-0.8,0.3-0.9,0.7c-2,5.8-7.1,10.5-13.5,11.8c-0.5,0.1-0.8,0.5-0.8,1v5.2h-4.4l-2.4-5.2   c-0.2-0.4-0.5-0.6-0.9-0.6H25.5c-0.4,0-0.7,0.2-0.9,0.6l-2.4,5.2h-4.4v-5.2c0-0.5-0.3-0.9-0.8-1C8.6,56.6,2.5,49.2,2.5,40.6   C2.5,32,8.4,25.1,15.9,23.1z"/><path d="M50.9,37c2.2,0,4-1.8,4-4s-1.8-4-4-4s-4,1.8-4,4S48.7,37,50.9,37z M50.9,31c1.1,0,2,0.9,2,2c0,1.1-0.9,2-2,2s-2-0.9-2-2   C48.9,31.9,49.8,31,50.9,31z"/></g></svg>