<?xml version="1.0" ?><svg enable-background="new 0 0 512 512" id="Layer_2" version="1.1" viewBox="0 0 512 512" xml:space="preserve" height = "48" width = "48" xmlns="http://www.w3.org/2000/svg" xmlns:xlink="http://www.w3.org/1999/xlink"><g><path d="   M295.569,99.021l-4.744,43.026c-1.744,16.272-14.908,28.576-30.574,28.576h0c-15.666,0-28.83-12.304-30.574-28.576l-3.74-40.245" fill="none" stroke="#474747" stroke-linecap="round" stroke-linejoin="round" stroke-miterlimit="10" stroke-width="15"/><path d="   M205.962,116.634l45.065-36.102c6.698-7.001,17.418-7.451,24.631-1.034l42.359,36.726" fill="none" stroke="#474747" stroke-linecap="round" stroke-linejoin="round" stroke-miterlimit="10" stroke-width="15"/><path d="   M224.856,183.571c-1.038-2.989,27.586,63.734,79.692,143.671" fill="none" stroke="#474747" stroke-linecap="round" stroke-linejoin="round" stroke-miterlimit="10" stroke-width="15"/><line fill="none" stroke="#474747" stroke-linecap="round" stroke-linejoin="round" stroke-miterlimit="10" stroke-width="15" x1="295.569" x2="269.754" y1="190.305" y2="216.121"/><path d="   M312.406,350.835L190.461,382.39c-9.134,1.036-18.355-0.811-26.474-5.304l-22.747-12.587   c-20.751-11.482-24.136-33.89-21.201-60.259l17.334-129.77c3.644-14.7,13.628-26.789,27.01-32.702l8.843-4.217" fill="none" stroke="#474747" stroke-linecap="round" stroke-linejoin="round" stroke-miterlimit="10" stroke-width="15"/><path d="   M121.336,342.888l-45.71,5.788c-20.404,2.584-36.17,19.961-37.555,41.394l0,0c-1.592,24.634,16.211,45.959,39.778,47.646   l111.246,7.964h14.904" fill="none" stroke="#474747" stroke-linecap="round" stroke-linejoin="round" stroke-miterlimit="10" stroke-width="15"/><path d="   M325.222,447.341l125.985-22.455c13.07-2.64,22.511-14.599,22.511-28.512v-18.903c0-21.16-19.608-36.869-40.258-32.254   l-115.442,25.799" fill="none" stroke="#474747" stroke-linecap="round" stroke-linejoin="round" stroke-miterlimit="10" stroke-width="15"/><path d="   M190.061,160c0.03-0.104-15.016-24.444-15.527-26.402c-4.159-15.932-0.097-32.894,10.853-45.192l48.338-54.287   c4.514-5.069,10.037-9.139,16.216-11.947l0,0c22.731-10.332,49.594-1.796,62.19,19.764l26.195,44.833   c5.112,8.75,8.182,24.394,7.707,36.643c-0.193,4.975-2.111,9.725-5.365,13.493l-17.038,19.729" fill="none" stroke="#474747" stroke-linecap="round" stroke-linejoin="round" stroke-miterlimit="10" stroke-width="15"/><path d="   M346.079,122.959l24.348,13.735c12.244,6.907,20.567,19.126,22.512,33.049l24.975,178.825" fill="none" stroke="#474747" stroke-linecap="round" stroke-linejoin="round" stroke-miterlimit="10" stroke-width="15"/><polyline fill="none" points="   198.472,283.299 304.549,327.241 237.472,330.299  " stroke="#474747" stroke-linecap="round" stroke-linejoin="round" stroke-miterlimit="10" stroke-width="15"/><path d="   M299.406,407.179l-3.511,70.84c0,8.163-5.5,14.781-12.285,14.781h-35.754c-6.785,0-12.285-6.617-12.285-14.781l-3.511-70.84" fill="none" stroke="#474747" stroke-linecap="round" stroke-linejoin="round" stroke-miterlimit="10" stroke-width="15"/><ellipse cx="265.733" cy="406.934" fill="none" rx="33.673" ry="12.347" stroke="#474747" stroke-linecap="round" stroke-linejoin="round" stroke-miterlimit="10" stroke-width="15"/><line fill="none" stroke="#474747" stroke-linecap="round" stroke-linejoin="round" stroke-miterlimit="10" stroke-width="15" x1="346.472" x2="304.472" y1="216.299" y2="327.299"/></g></svg>