<svg id="Capa_1" enable-background="new 0 0 512 512" height="512" viewBox="0 0 512 512" width="512" xmlns="http://www.w3.org/2000/svg"><g><g><path d="m428.317 0h-344.634c-5.523 0-10 4.477-10 10v78.168c0 5.522 4.477 10 10 10h11.188v349.254c0 35.608 28.97 64.578 64.578 64.578h193.102c35.608 0 64.578-28.97 64.578-64.578v-349.254h11.189c5.523 0 10-4.478 10-10v-78.168c-.001-5.523-4.478-10-10.001-10zm-97.024 78.168v-58.168h45.293v58.168zm-195.879 0v-58.168h45.293v58.168zm65.293-58.168h45.293v58.168h-45.293zm65.293 0h45.293v58.168h-45.293zm-172.317 0h21.731v58.168h-21.731zm303.446 108.021h-95.922c-5.523 0-10 4.477-10 10 0 5.522 4.477 10 10 10h95.922v299.4c0 24.58-19.998 44.578-44.578 44.578h-193.102c-24.581 0-44.578-19.998-44.578-44.578v-299.4h95.923c5.523 0 10-4.478 10-10 0-5.523-4.477-10-10-10h-95.923v-29.853h282.258zm21.188-49.853h-21.732v-58.168h21.732z"/><path d="m146.4 200.021v208.892c0 15.347 12.485 27.832 27.831 27.832h163.536c15.346 0 27.832-12.485 27.832-27.832v-208.892c0-5.523-4.477-10-10-10h-199.199c-5.523 0-10 4.478-10 10zm20 10h179.2v198.892c0 4.318-3.513 7.832-7.832 7.832h-163.536c-4.318 0-7.831-3.514-7.831-7.832v-198.892z"/><path d="m218.54 345.822h5.02v5.021c0 17.887 14.552 32.439 32.439 32.439s32.44-14.552 32.44-32.439v-5.021h5.02c17.887 0 32.439-14.553 32.439-32.439 0-17.887-14.552-32.439-32.439-32.439h-5.02v-5.02c0-17.887-14.552-32.439-32.44-32.439s-32.439 14.553-32.439 32.439v5.02h-5.02c-17.887 0-32.439 14.553-32.439 32.439 0 17.887 14.552 32.439 32.439 32.439zm0-44.879h15.02c5.523 0 10-4.478 10-10v-15.02c0-6.859 5.581-12.439 12.439-12.439 6.859 0 12.44 5.58 12.44 12.439v15.02c0 5.522 4.477 10 10 10h15.02c6.859 0 12.439 5.58 12.439 12.439s-5.58 12.439-12.439 12.439h-15.02c-5.523 0-10 4.478-10 10v15.021c0 6.858-5.581 12.439-12.44 12.439s-12.439-5.58-12.439-12.439v-15.021c0-5.522-4.477-10-10-10h-15.02c-6.859 0-12.439-5.58-12.439-12.439s5.58-12.439 12.439-12.439z"/><path d="m246.95 141.85c1.56 3.749 5.333 6.227 9.393 6.167 4.175-.061 7.97-2.827 9.307-6.783 1.315-3.889.07-8.345-3.125-10.941-3.386-2.752-8.257-2.993-11.895-.582-3.938 2.608-5.465 7.788-3.68 12.139z"/></g></g></svg>