<?xml version="1.0" ?><svg data-name="Layer 1" height="54" id="Layer_1" viewBox="0 0 64 64" width="48" xmlns="http://www.w3.org/2000/svg"><defs><style>
      .cls-1, .cls-17 {
        fill: #3a3a3a;
      }

      .cls-2 {
        fill: #ac8164;
      }

      .cls-3 {
        fill: #eee;
      }

      .cls-11, .cls-12, .cls-13, .cls-15, .cls-16, .cls-4, .cls-7, .cls-8 {
        fill: none;
      }

      .cls-4, .cls-7 {
        stroke: #333;
        stroke-linejoin: round;
        stroke-width: 1.5px;
      }

      .cls-5 {
        fill: #333;
      }

      .cls-6 {
        fill: #9b7059;
      }

      .cls-11, .cls-12, .cls-13, .cls-15, .cls-16, .cls-17, .cls-7, .cls-8 {
        stroke-linecap: round;
      }

      .cls-8 {
        stroke: #a76e51;
        opacity: 0.07;
        isolation: isolate;
      }

      .cls-11, .cls-12, .cls-13, .cls-15, .cls-16, .cls-17, .cls-8 {
        stroke-miterlimit: 10;
      }

      .cls-11, .cls-13, .cls-15, .cls-8 {
        stroke-width: 0.5px;
      }

      .cls-9 {
        fill: #ab8166;
      }

      .cls-10 {
        fill: #a0775c;
      }

      .cls-11 {
        stroke: #9c6f57;
      }

      .cls-12, .cls-13 {
        stroke: #a3775d;
      }

      .cls-12, .cls-16 {
        stroke-width: 0.75px;
      }

      .cls-14 {
        fill: #925140;
      }

      .cls-15 {
        stroke: #743f40;
      }

      .cls-16 {
        stroke: #674848;
      }

      .cls-17 {
        stroke: #3a3a3a;
        stroke-width: 0.5px;
      }

      .cls-18 {
        fill: #444;
      }
    </style></defs><title/><g><path class="cls-1" d="M50.2,44.08a2.88,2.88,0,0,0,.49-3.21v0a2.87,2.87,0,0,1,0-2.43l.15-.33a2.9,2.9,0,0,0-.42-3l-.25-.3A2.88,2.88,0,0,1,49.61,32L50,30.73a2.89,2.89,0,0,0-.77-3L48,26.57A2.89,2.89,0,0,1,47.17,24l.34-2.1a2.9,2.9,0,0,0-1-2.71l-1.72-1.42a2.82,2.82,0,0,1-.88-1.22l-1.07-2.85a2.87,2.87,0,0,0-1.19-1.45l-3.26-2a2.87,2.87,0,0,0-1.94-.4l-2.51.37a2.87,2.87,0,0,1-1.36-.13L31.19,9.6a2.9,2.9,0,0,0-2.93.63l-.81.76a2.76,2.76,0,0,1-1.09.65l-2.21.72A2.89,2.89,0,0,0,22.39,14l-.39.92a3,3,0,0,1-.79,1.06L19.34,17.5a2.89,2.89,0,0,0-1,2.52l.07.64A2.88,2.88,0,0,1,17.53,23L16.1,24.42a2.92,2.92,0,0,0-.83,2.63l.6,3.09a2.89,2.89,0,0,1-.5,2.24l-.73,1a2.87,2.87,0,0,0-.06,3.28,2.91,2.91,0,0,1,0,3.13l-.31.49A2.93,2.93,0,0,0,14.12,43l.52,1.14a2.87,2.87,0,0,1,.17,1.91c1.43.18,2.7.28,3.2.28H49a2.87,2.87,0,0,1,.77-1.83Z"/><path class="cls-2" d="M50.5,45.14,38,42.65h-.11v-5.9H26.08v5.9H26L13.56,45.14c-3.74.94-4,4.35-4.32,6l.1.06A56.16,56.16,0,0,0,30.49,56h0a56.17,56.17,0,0,0,24.22-4.74l0,0C54.55,49.61,54.38,46.12,50.5,45.14Z"/><path class="cls-3" d="M47.5,44.54l-4-.79a11.5,11.5,0,0,1-23,0l-4,.8v9.25A56.82,56.82,0,0,0,32,56,56.84,56.84,0,0,0,47.5,53.83Z"/><path class="cls-4" d="M47.5,44.54l-4-.79a11.5,11.5,0,0,1-23,0l-4,.8v9.25A56.82,56.82,0,0,0,32,56,56.84,56.84,0,0,0,47.5,53.83Z"/><path class="cls-4" d="M26.14,42.64c-5.08.83-8.07,1.46-12.58,2.5a5.46,5.46,0,0,0-4,4.22l-.31,1.8.1.06A56.12,56.12,0,0,0,32,56a56.07,56.07,0,0,0,22.68-4.76l0,0-.25-1.83a5.46,5.46,0,0,0-4-4.22C46.09,44,43.08,43.48,38,42.65"/><path class="cls-5" d="M40.45,29.83a1.37,1.37,0,0,0,.5.65,4.27,4.27,0,0,1,.95.93,2.47,2.47,0,0,1,.37.84,1.87,1.87,0,0,1,0,.47l0,.39a2.81,2.81,0,0,1-.75,1.53c-.37.38-.53.52-.58.66a1,1,0,0,0-.08.31,2.55,2.55,0,0,0,0,.32c0,.11.1.23.41.46a3.17,3.17,0,0,1,1.11,1.12,2.25,2.25,0,0,1,.2.92,3.17,3.17,0,0,1-.12.81,3.59,3.59,0,0,1-.72,1.27,4.92,4.92,0,0,0-.59.86,2.07,2.07,0,0,0-.14.42A.83.83,0,0,0,41,42v.17c0,.09.15.35.44.63a2.73,2.73,0,0,1,.8,1.27,2.15,2.15,0,0,1-.29,1.5,6,6,0,0,1-.78,1,.41.41,0,0,1-.57,0,.41.41,0,0,1-.05-.54c.44-.59.83-1.36.66-1.77a1.72,1.72,0,0,0-.58-.67,2.35,2.35,0,0,1-.91-1.3,1.59,1.59,0,0,1,0-.43,2.22,2.22,0,0,1,0-.37,3.25,3.25,0,0,1,.2-.74,5.64,5.64,0,0,1,.7-1.16,2.5,2.5,0,0,0,.43-.82,1.29,1.29,0,0,0,0-.39.57.57,0,0,0-.07-.24,2,2,0,0,0-.64-.5,2.43,2.43,0,0,1-1.11-1.32,2.64,2.64,0,0,1-.11-.88,2.52,2.52,0,0,1,.17-.86,3.59,3.59,0,0,1,.89-1.22,1,1,0,0,0,.3-.59,1.27,1.27,0,0,0,0-.62,8.32,8.32,0,0,0-.56-.94,2.89,2.89,0,0,1-.32-.71,1.7,1.7,0,0,1,0-.84.4.4,0,0,1,.51-.26.39.39,0,0,1,.26.27Z"/><path class="cls-5" d="M24,29.73a1.69,1.69,0,0,1,.05.84,2.78,2.78,0,0,1-.29.72,8.89,8.89,0,0,0-.53,1,1.31,1.31,0,0,0,0,.62,1.07,1.07,0,0,0,.31.58,3.65,3.65,0,0,1,.94,1.19,2.55,2.55,0,0,1,.2.86,2.78,2.78,0,0,1-.08.87,2.4,2.4,0,0,1-1.07,1.36,2.35,2.35,0,0,0-.62.52.46.46,0,0,0-.06.24,1.27,1.27,0,0,0,.05.39,2.28,2.28,0,0,0,.45.8,5.48,5.48,0,0,1,.74,1.14,3.1,3.1,0,0,1,.23.73,2.21,2.21,0,0,1,0,.37,1.52,1.52,0,0,1,0,.43,2.35,2.35,0,0,1-.86,1.33,1.74,1.74,0,0,0-.56.68c-.15.42.26,1.17.72,1.75a.39.39,0,0,1-.06.56.41.41,0,0,1-.54,0,5.59,5.59,0,0,1-.81-1,2.1,2.1,0,0,1-.35-1.48,2.69,2.69,0,0,1,.76-1.29c.28-.3.45-.56.42-.65l0-.16a.85.85,0,0,0,0-.23,1.56,1.56,0,0,0-.15-.41,4.69,4.69,0,0,0-.62-.84,3.7,3.7,0,0,1-.76-1.24,3.22,3.22,0,0,1-.15-.8,2.24,2.24,0,0,1,.17-.93,3.13,3.13,0,0,1,1.07-1.16c.31-.24.38-.36.39-.47a1.09,1.09,0,0,0,0-.32.71.71,0,0,0-.09-.3c-.06-.15-.21-.28-.6-.64a2.75,2.75,0,0,1-.8-1.5l-.05-.4a2.58,2.58,0,0,1,0-.47,2.3,2.3,0,0,1,.34-.85,4.5,4.5,0,0,1,.92-1,1.3,1.3,0,0,0,.48-.66l0-.08a.4.4,0,0,1,.77,0Z"/><path class="cls-5" d="M18.67,33.61a1.69,1.69,0,0,1-.07,1.21,9.19,9.19,0,0,1-.48.87,1.38,1.38,0,0,0-.25.57,3,3,0,0,0,0,.45c.1.39.14.44.71,1a2.44,2.44,0,0,1,.66,1.14,3,3,0,0,1,0,1.28,2.2,2.2,0,0,1-.74,1.19c-.31.26-.57.41-.75.54a.65.65,0,0,0-.26.31,1.12,1.12,0,0,0,0,.5,3.5,3.5,0,0,0,.7,1.33,3.16,3.16,0,0,1,.56,2,.4.4,0,0,1-.8,0h0a2.37,2.37,0,0,0-.69-1.3A4.38,4.38,0,0,1,16.15,43a2.24,2.24,0,0,1-.06-1.27,2.15,2.15,0,0,1,.73-1.13c.29-.24.53-.4.67-.54s.16-.2.17-.3a1.84,1.84,0,0,0-.05-.5.87.87,0,0,0-.24-.36,6,6,0,0,1-.71-.72,2.68,2.68,0,0,1-.5-1.2,2.25,2.25,0,0,1,.13-1.31,3.17,3.17,0,0,1,.68-.94c.49-.46.81-.64.91-1l0-.07a.42.42,0,0,1,.49-.29A.38.38,0,0,1,18.67,33.61Z"/><g><path class="cls-6" d="M26.08,36.75v3l4.81,5A3.92,3.92,0,0,1,32,47.44,2.53,2.53,0,0,0,34.53,50H35a2.9,2.9,0,0,0,2.89-2.89V36.75Z"/><polyline class="cls-7" points="26.08 42.65 26.08 36.75 37.92 36.75 37.92 42.65"/></g><path class="cls-8" d="M29.5,37.18l.32.58c.34.63.75,1,1.17,1h1.94c.42,0,.84-.34,1.18-1l.31-.58"/><path class="cls-9" d="M42.28,23.28c0-.32.12-1.6.12-1.91C42.4,16,40,11.26,32,11.26S21.6,16,21.6,21.37c0,.31.09,1.59.12,1.91-1.73,0-2.35,1.76-2.07,4.06.24,1.95,1,4.08,2.84,4.14,0,.11.05.42.09,1.05.19,3,2.17,4.63,5,7.53A6,6,0,0,0,32,42a5.93,5.93,0,0,0,4.44-1.87c2.79-2.9,4.79-4.55,5-7.55,0-.63.09-.94.09-1.05,1.86-.06,2.6-2.19,2.84-4.14C44.63,25,44,23.28,42.28,23.28Z"/><path class="cls-10" d="M34.1,15.2c0-.49.44,3.74-3.38,4.26-1.46.21-3.37-.32-4.43,1.1s.19,2.73-1.28,3.27a2.5,2.5,0,0,0-1.72,1.32c-.66,1.48.91,2.89-.22,3.66A2.88,2.88,0,0,0,21.23,31V31a2.07,2.07,0,0,0,.94.42,1.72,1.72,0,0,1,.76-1.26,2.48,2.48,0,0,0,1.86-2.3c0-1.05-.66-2,.05-2.43.2-.1,2.6-.45,2.48-2.89,0-1.08-.15-1.63,1.85-1.76,1.58-.12,3.46-.27,4.82-2.19a4.7,4.7,0,0,0,.79-3.51A.34.34,0,0,0,34.1,15.2Z"/><path class="cls-10" d="M42.22,23.29c0-.32.12-1.58.12-1.9h0C42.34,16,40,11.28,31.93,11.28a17.21,17.21,0,0,0-2.7.21h0V22A3.9,3.9,0,0,1,28,24.87a.44.44,0,0,0-.15.33.45.45,0,0,0,.35.44A2.58,2.58,0,0,1,30,27.52a.49.49,0,0,0,.77.29,1.6,1.6,0,0,1,.59-.31A.48.48,0,0,1,32,28v2.49c0,1,1.3.83.78,1.83a.76.76,0,0,1-.78.45c-.86,0-.82-.27-1.47-.38-.33,0-.53.21-.53.55,1,0,1,.5,2,.5v3.71h0a.4.4,0,0,0,.31.38,1.62,1.62,0,0,1,1.21,1.42c0,.64-.36,1.3-1.52,1.54s-2.57-1-3.07,0a.92.92,0,0,0-.05.26c0,.43.32,1.23,3.12,1.23a4.65,4.65,0,0,0,4.25-1.72c2.79-2.91,4.91-4.67,5.1-7.67,0-.64.09-1,.09-1.06,1.87-.05,2.6-2.19,2.84-4.14a8.39,8.39,0,0,0,.07-.84C44.39,24.65,43.73,23.29,42.22,23.29Z"/><path class="cls-6" d="M43.59,29.91A6.08,6.08,0,0,0,44,28.67c-2.08-.54-4.23-1.37-5-3.11-1-2.46,0-6.37-5.9-8.41a.34.34,0,0,0-.25.64C38.11,20,36.81,23.12,37.87,26,38.7,28.47,41.09,29.5,43.59,29.91Z"/><path class="cls-11" d="M30,33.41c1,0,1,.51,2,.51s1-.51,2-.51"/><line class="cls-11" x1="32" x2="32" y1="33.76" y2="34.5"/><path class="cls-12" d="M30,37.27a2.2,2.2,0,0,0,1.57.56h1a2.55,2.55,0,0,0,1.69-.6"/><line class="cls-13" x1="28.99" x2="28.66" y1="35.96" y2="36.62"/><line class="cls-11" x1="35.1" x2="35.49" y1="35.96" y2="36.75"/><path class="cls-14" d="M32.92,36.15a5.4,5.4,0,0,0-.88.2,5.4,5.4,0,0,0-.85-.2c-1.36,0-1.12.2-2.15.2l.92.94a2.13,2.13,0,0,0,1.55.56h1a2.5,2.5,0,0,0,1.67-.6l.86-.9C34,36.34,34.3,36.15,32.92,36.15Z"/><path class="cls-14" d="M32.05,36.35a5.22,5.22,0,0,1,.87-.2c1.38,0,1.08.19,2.12.2-1.41-.51-1.41-1.51-2.21-1.2a1.84,1.84,0,0,1-.78.2c-.21,0-.22,0-.68-.2-.8-.32-.84.66-2.33,1.2,1,0,.79-.2,2.15-.2A5.59,5.59,0,0,1,32.05,36.35Z"/><path class="cls-15" d="M35,36.35c-1,0-1.49-.5-3,0h0c-1.48-.5-2,0-3,0"/><path class="cls-16" d="M30.05,32.91c1,0,1,.5,2,.5s1-.5,2-.5"/><circle class="cls-1" cx="27.58" cy="28.06" r="0.75"/><path class="cls-17" d="M29.39,28.43c-.58-.33-2.07-2.25-4-.33a2.21,2.21,0,0,1-.66-.46,4.12,4.12,0,0,1,3-.27"/><path class="cls-17" d="M34.84,28.43c.58-.33,2.07-2.25,4-.33a2.14,2.14,0,0,0,.67-.46,4.12,4.12,0,0,0-3-.27"/><circle class="cls-1" cx="36.58" cy="28.06" r="0.75"/><path class="cls-1" d="M24.65,25.77A3.67,3.67,0,0,1,26,25.23a4.43,4.43,0,0,1,1.41,0,11.38,11.38,0,0,1,1.34.31,9.52,9.52,0,0,0,1.22.28h0a.51.51,0,0,1,.45.56.52.52,0,0,1-.55.45l-.08,0a8.55,8.55,0,0,1-1.31-.5,12,12,0,0,0-1.21-.46,3.67,3.67,0,0,0-1.22-.2,1.89,1.89,0,0,0-1.15.38.18.18,0,0,1-.25,0,.19.19,0,0,1,0-.25Z"/><path class="cls-1" d="M39.23,26.06a1.82,1.82,0,0,0-1.15-.37,3.67,3.67,0,0,0-1.22.2,9.92,9.92,0,0,0-1.2.47,7.9,7.9,0,0,1-1.33.48.5.5,0,0,1-.61-.37.51.51,0,0,1,.38-.61h.08a7.26,7.26,0,0,0,1.21-.27,11.21,11.21,0,0,1,1.33-.31,4.17,4.17,0,0,1,1.41,0,3.66,3.66,0,0,1,1.31.53.18.18,0,1,1-.19.3Z"/><path class="cls-4" d="M42.28,23.28c0-.32.12-1.6.12-1.91C42.4,16,40,11.26,32,11.26S21.6,16,21.6,21.37c0,.31.09,1.59.12,1.91-1.73,0-2.35,1.76-2.07,4.06.24,1.95,1,4.08,2.84,4.14,0,.11.05.42.09,1.05.19,3,2.17,4.63,5,7.53A6,6,0,0,0,32,42a5.93,5.93,0,0,0,4.44-1.87c2.79-2.9,4.79-4.55,5-7.55,0-.63.09-.94.09-1.05,1.86-.06,2.6-2.19,2.84-4.14C44.63,25,44,23.28,42.28,23.28Z"/><path class="cls-4" d="M42.28,23.28c0-.32.12-1.6.12-1.91C42.4,16,40,11.26,32,11.26S21.6,16,21.6,21.37c0,.31.09,1.59.12,1.91-1.73,0-2.35,1.76-2.07,4.06.24,1.95,1,4.08,2.84,4.14,0,.11.05.42.09,1.05.19,3,2.17,4.63,5,7.53A6,6,0,0,0,32,42a5.93,5.93,0,0,0,4.44-1.87c2.79-2.9,4.79-4.55,5-7.55,0-.63.09-.94.09-1.05,1.86-.06,2.6-2.19,2.84-4.14C44.63,25,44,23.28,42.28,23.28Z"/><path class="cls-5" d="M44.19,41.84a1.14,1.14,0,0,1,.69-.88c.29-.17.59-.27.84-.42.53-.27.54-.7,0-1-.23-.16-.52-.3-.8-.5A1.13,1.13,0,0,1,44.4,38a1.31,1.31,0,0,1,.78-.9c.3-.16.59-.27.82-.4s.34-.28.32-.43-.15-.28-.39-.44-.52-.29-.82-.52a1.54,1.54,0,0,1-.42-.48,1.07,1.07,0,0,1-.07-.73,1.7,1.7,0,0,1,.76-.93l.79-.51c.24-.15.36-.35.33-.36s0,0,0,0a.7.7,0,0,0-.23,0c-.25,0-.56.07-.89.1a1.58,1.58,0,0,1-1.27-.27,1.21,1.21,0,0,1-.35-.73,2.88,2.88,0,0,1,0-.61,7.47,7.47,0,0,1,.28-1,5.41,5.41,0,0,0,.21-.81c0-.27,0-.34,0-.32s-.15,0-.48.13a1.63,1.63,0,0,1-.71.07,1.13,1.13,0,0,1-.76-.53,1.4,1.4,0,0,1-.19-.8,2.07,2.07,0,0,1,.18-.63,2.47,2.47,0,0,0,.25-.66.15.15,0,0,0,0-.07s.11.08.11.06a5.16,5.16,0,0,0-.66.27,2.39,2.39,0,0,1-.64.16,1.37,1.37,0,0,1-.88-.24,2,2,0,0,1-.69-1.2c-.08-.36-.11-.68-.17-.9a.75.75,0,0,0-.07-.19s0,0,0,0l-.29-.36a.61.61,0,0,1,.63-1,1.34,1.34,0,0,1,.77.53,1.75,1.75,0,0,1,.28.67c.09.39.1.7.15.95a.68.68,0,0,0,.17.42s0,0,0,0a1.18,1.18,0,0,0,.27-.07,3.24,3.24,0,0,1,1.11-.32,1.06,1.06,0,0,1,.9.47,1.28,1.28,0,0,1,.24.82,2.9,2.9,0,0,1-.38,1.1c-.13.27-.11.3-.08.36s0,0,0,0a1.08,1.08,0,0,0,.22,0c.14,0,.3-.08.51-.11a1.08,1.08,0,0,1,1.31.85,1.69,1.69,0,0,1,0,.67,5.85,5.85,0,0,1-.28,1,7,7,0,0,0-.26.83.76.76,0,0,0,0,.44,1,1,0,0,0,.53.05c.29,0,.6-.08,1-.08a1.19,1.19,0,0,1,.68.16.9.9,0,0,1,.43.77,1,1,0,0,1-.29.72,2.79,2.79,0,0,1-.44.37l-.81.49a1.08,1.08,0,0,0-.46.45c0,.12,0,.23.21.41s.47.31.75.5a1.33,1.33,0,0,1,.68,1,1.14,1.14,0,0,1-.68,1c-.6.32-1.29.49-1.32.82s.51.65,1,1a1.78,1.78,0,0,1,.4.38,1,1,0,0,1,.19.61A1.15,1.15,0,0,1,46,41c-.58.29-1.29.45-1.32.89a.22.22,0,0,1-.24.2A.24.24,0,0,1,44.19,41.84Z"/><path class="cls-1" d="M48,26.57c-1.61-1.51-.58-3.45-.53-4.68.39-2.35-1.88-3.2-2.74-4.13s-1-1.65-2-4.07C42.27,12.2,41,12,38.37,10.23c-1.36-.84-2.5-.19-4.45,0-1,.15-1.65-.28-2.73-.6-2.13-.74-3.38,1.16-3.74,1.39-.75.71-1.42.69-3.3,1.37A3.67,3.67,0,0,0,22,14.87c-.43,1-1.11,1.24-2.66,2.63a3.24,3.24,0,0,0-.95,3.16c.21,2-1.53,2.85-2.29,3.76-1.68,1.63-.43,3.62-.23,5.72a3.25,3.25,0,0,1-.81,2.67h4.13a2.56,2.56,0,0,0,1.81-.9c.44-.6.15-1.06.54-1.81.56-1.07,1.47-.78,2-1.67.72-1.22-.6-2.4.11-3.52.53-.82,1.42-.43,2.14-1.35s0-1.88.61-2.8c.93-1.47,3.93-.51,5.43-1.47a5,5,0,0,0,1.78-1.94,8.73,8.73,0,0,1,3.92,2.51c1,1.14,1.22,4.45,1.82,6.05.66,1.8,1.85,3.09,7.09,3.32a27.15,27.15,0,0,0,3.66-.08Z"/><path class="cls-18" d="M18.62,26.79a2.28,2.28,0,0,1,.87-.95,4.12,4.12,0,0,0,.84-.53,1.4,1.4,0,0,0,.15-1.52,4.27,4.27,0,0,1-.23-1.22,2,2,0,0,1,.58-1.45,2.86,2.86,0,0,1,1.24-.65,1.24,1.24,0,0,0,.59-.38c.34-.39.27-.61.29-1.59a2.3,2.3,0,0,1,.6-1.42,2.47,2.47,0,0,1,1.28-.74c.87-.18,1.58-.08,2.19-.22a2.25,2.25,0,0,0,1.48-1h0A.34.34,0,0,1,29,15a.36.36,0,0,1,.12.42,3.3,3.3,0,0,1-.7,1,3,3,0,0,1-1.11.65c-.79.27-1.58.28-2.11.49a1,1,0,0,0-.74,1,7.57,7.57,0,0,1,0,1.16,2.49,2.49,0,0,1-.68,1.36,2.69,2.69,0,0,1-1.26.73,1.86,1.86,0,0,0-.73.26.77.77,0,0,0-.24.51,4.06,4.06,0,0,0,.12.93,3.46,3.46,0,0,1,0,1.3A2.1,2.1,0,0,1,21,26.05a4.48,4.48,0,0,1-1.08.52,1.49,1.49,0,0,0-.67.55.33.33,0,0,1-.47.1A.36.36,0,0,1,18.62,26.79Z"/><path class="cls-5" d="M48.31,29.55a13.54,13.54,0,0,1-5.45-.17,7.15,7.15,0,0,1-2.64-1.07,5,5,0,0,1-1.82-2.43c-.62-1.88-.45-3.64-1.2-5.09a7.07,7.07,0,0,0-3.73-3.12.35.35,0,0,1-.18-.45.34.34,0,0,1,.43-.19,11,11,0,0,1,2.47,1.2,6.13,6.13,0,0,1,1.92,2.09c1,1.71.9,3.66,1.5,5.1A3.21,3.21,0,0,0,41,27.07a15.21,15.21,0,0,0,2.24.94,19.48,19.48,0,0,0,5,.86h0a.34.34,0,0,1,.32.36A.32.32,0,0,1,48.31,29.55Z"/><path class="cls-5" d="M37,14.86a9.82,9.82,0,0,1,3,2,8.78,8.78,0,0,1,2,3.1,18.87,18.87,0,0,1,.72,3.44,3.57,3.57,0,0,0,.47,1.38,1.89,1.89,0,0,0,1.16.71h.06a.34.34,0,0,1-.12.67,2.61,2.61,0,0,1-1.87-.73,4.39,4.39,0,0,1-.91-1.73c-.35-1.17-.6-2.24-.94-3.25a8.38,8.38,0,0,0-1.5-2.77,11.7,11.7,0,0,0-2.44-2.19l0,0a.35.35,0,0,1-.07-.48A.34.34,0,0,1,37,14.86Z"/><path class="cls-5" d="M14.52,44.9a5.08,5.08,0,0,0-.42-1,8.18,8.18,0,0,1-.48-1.17,3.52,3.52,0,0,1-.13-1.34A3.29,3.29,0,0,1,14,40.08l0,0A2.73,2.73,0,0,0,14,36.57a3.28,3.28,0,0,1-.25-2.42,6.63,6.63,0,0,1,1.14-2,2.29,2.29,0,0,0,.51-1.64c-.08-.59-.28-1.34-.43-2a8.94,8.94,0,0,1-.28-2.25A3.43,3.43,0,0,1,15,25a3.71,3.71,0,0,1,.74-1l0,0A12.76,12.76,0,0,0,17.57,22a2.27,2.27,0,0,0,.22-1.09,6,6,0,0,1-.08-1.62,3.46,3.46,0,0,1,.66-1.67A4.14,4.14,0,0,1,19,17l.57-.48c.74-.66,1.6-1.23,1.83-1.88v0l0-.06c0-.09.18-.46.31-.74a4.36,4.36,0,0,1,.52-.9A3.56,3.56,0,0,1,24,11.67l1.67-.55a5.71,5.71,0,0,0,.74-.29,1.75,1.75,0,0,0,.53-.37l.06-.05.42-.42A7.46,7.46,0,0,1,28,9.48a3.83,3.83,0,0,1,1.52-.72,3.44,3.44,0,0,1,1.72.08c.51.15.9.31,1.32.45a2.74,2.74,0,0,0,1.06.19c.34,0,.85-.13,1.28-.21a6.56,6.56,0,0,1,3.07,0,4.38,4.38,0,0,1,.79.37l.58.35,1.17.71,1.18.75a5.44,5.44,0,0,1,1.22,1,4.21,4.21,0,0,1,.72,1.44l.47,1.29c.15.43.3.86.47,1.23a2.07,2.07,0,0,0,.61.85h0l0,.05c.5.5,1.29,1,2,1.67A3.79,3.79,0,0,1,48,20.26a3.31,3.31,0,0,1,.14,1.55c-.13.93-.37,1.72-.41,2.48a2.16,2.16,0,0,0,.68,1.85l0,0,0,0a15.09,15.09,0,0,1,1.63,1.7,3.26,3.26,0,0,1,.52,2.63A20.27,20.27,0,0,0,50,32.67a2.07,2.07,0,0,0,.51,1.75l0,.06c0-.07,0,0,0,0l.07.08.12.15a4.09,4.09,0,0,1,.57,1,3.14,3.14,0,0,1,.18,1.58,5.46,5.46,0,0,1-.47,1.4,2.75,2.75,0,0,0-.22,1.15,6,6,0,0,0,.41,1.22,3.36,3.36,0,0,1,.11,1.54,3,3,0,0,1-.63,1.43c-.31.39-.66.69-.9,1a.34.34,0,0,1-.56-.4c.3-.42.64-.74.89-1.08a2.18,2.18,0,0,0,.44-1.08,2.59,2.59,0,0,0-.12-1.18A5.58,5.58,0,0,1,50,40c-.15-1.13.56-2.07.61-2.76a2.16,2.16,0,0,0-.15-1.12,2.65,2.65,0,0,0-.27-.53L50,35.3l-.26-.3,0,0a3.48,3.48,0,0,1-.66-1.16A3.12,3.12,0,0,1,49,32.54a21.32,21.32,0,0,1,.61-2.27,2.07,2.07,0,0,0-.39-1.74A14.82,14.82,0,0,0,47.6,27l0,.05a3.45,3.45,0,0,1-.88-1.26,3.62,3.62,0,0,1-.23-1.5c0-.95.27-1.81.36-2.58a2,2,0,0,0-.65-1.79c-.51-.54-1.23-.94-2-1.62l0,0a3.54,3.54,0,0,1-1-1.32c-.22-.46-.37-.9-.54-1.33l-.48-1.28a2.81,2.81,0,0,0-.49-1A10.21,10.21,0,0,0,39.75,12l-1.17-.71L38,10.88a2.41,2.41,0,0,0-.46-.22,5.2,5.2,0,0,0-2.36.09c-.47.08-.86.17-1.43.22a4.14,4.14,0,0,1-1.63-.25c-.45-.15-.91-.33-1.28-.44a1.83,1.83,0,0,0-1-.06,2.51,2.51,0,0,0-.94.44,5.58,5.58,0,0,0-.46.39c-.17.15-.27.28-.57.53l.07-.06a3.31,3.31,0,0,1-.92.62,8.65,8.65,0,0,1-.91.34L24.44,13a2.09,2.09,0,0,0-1.11.73,3,3,0,0,0-.37.61c-.12.25-.16.45-.39.88l0-.08a3.85,3.85,0,0,1-1.07,1.38l-1.16,1-.57.47a2.87,2.87,0,0,0-.43.42A2.28,2.28,0,0,0,19,19.42,5.25,5.25,0,0,0,19,20.76a3.24,3.24,0,0,1-.38,1.77,11.47,11.47,0,0,1-2.09,2.27l0,0a2.13,2.13,0,0,0-.7,1.5,7.68,7.68,0,0,0,.23,2c.14.7.31,1.34.41,2.15a3.34,3.34,0,0,1-.72,2.32,6.08,6.08,0,0,0-1,1.66,2.35,2.35,0,0,0,.13,1.71,9.27,9.27,0,0,1,.5,1,3.15,3.15,0,0,1,.18,1.21,3.44,3.44,0,0,1-.27,1.19,6.71,6.71,0,0,1-.55.94l0,0a2.34,2.34,0,0,0-.31,2,7,7,0,0,0,.41,1.06,6.35,6.35,0,0,1,.44,1.21.33.33,0,0,1-.23.41.33.33,0,0,1-.41-.21Z"/><path class="cls-5" d="M19.15,32.47a2.52,2.52,0,0,0,1.3-.58c.35-.35.32-.58.39-1.28a2.59,2.59,0,0,1,.36-1,2.24,2.24,0,0,1,.76-.77c.63-.36.92-.46,1.05-.8A1.55,1.55,0,0,0,23,26.9a7.11,7.11,0,0,1-.21-.9,2.19,2.19,0,0,1,.15-1.19,2,2,0,0,1,.84-1,5.25,5.25,0,0,1,.88-.36,1.28,1.28,0,0,0,.45-.27,1.2,1.2,0,0,0,.27-.42c.14-.25,0-.69.09-1.47a2.41,2.41,0,0,1,1.38-1.84,4.61,4.61,0,0,1,1.92-.31,10.27,10.27,0,0,0,1.59-.05,3.85,3.85,0,0,0,1.39-.45,4.11,4.11,0,0,0,1.14-1,4,4,0,0,0,.86-2.82v0a.34.34,0,0,1,.31-.37.35.35,0,0,1,.36.29,4.65,4.65,0,0,1-.79,3.5,5.21,5.21,0,0,1-1.34,1.27,4.86,4.86,0,0,1-1.73.72c-1.18.25-2.44.13-3.1.47a1,1,0,0,0-.52.77,5.11,5.11,0,0,1-.13,1.84,2.65,2.65,0,0,1-.66,1,2.62,2.62,0,0,1-1,.58c-.32.11-.56.17-.68.23a.57.57,0,0,0-.26.27c-.13.21-.07.61.07,1.19a4.43,4.43,0,0,1,.14,1,2.26,2.26,0,0,1-.29,1.12,2.08,2.08,0,0,1-.8.81c-.32.18-.59.26-.77.36a1.36,1.36,0,0,0-.7.95,7.18,7.18,0,0,1-.2.88,1.92,1.92,0,0,1-.63.86,3.25,3.25,0,0,1-1.78.62.35.35,0,0,1-.37-.32A.34.34,0,0,1,19.15,32.47Z"/></g></svg>