<?xml version="1.0" ?><!DOCTYPE svg  PUBLIC '-//W3C//DTD SVG 1.1//EN'  'http://www.w3.org/Graphics/SVG/1.1/DTD/svg11.dtd'><svg height="48" style="enable-background:new 0 0 512 512;" version="1.1" viewBox="0 0 512 512" width="48" xml:space="preserve" xmlns="http://www.w3.org/2000/svg" xmlns:xlink="http://www.w3.org/1999/xlink"><g id="_x33_26_-_Campaign_x2C__political_x2C__politics_x2C__vote"><g><g><path d="M378.25,317h-246.5c-19.575,0-35.5-15.925-35.5-35.5s15.925-35.5,35.5-35.5h246.5c19.575,0,35.5,15.925,35.5,35.5     S397.825,317,378.25,317z M131.75,266c-8.547,0-15.5,6.953-15.5,15.5s6.953,15.5,15.5,15.5h246.5c8.547,0,15.5-6.953,15.5-15.5     s-6.953-15.5-15.5-15.5H131.75z"/></g><g><path d="M378.25,266h-246.5c-5.523,0-10-4.478-10-10v-12.75C121.75,169.776,181.526,110,255,110     c73.475,0,133.25,59.776,133.25,133.25V256C388.25,261.522,383.772,266,378.25,266z M141.75,246h226.5v-2.75     C368.25,180.804,317.446,130,255,130s-113.25,50.804-113.25,113.25V246z"/></g><g><path d="M174.25,469h-34c-5.523,0-10-4.478-10-10V357c0-14.888,12.112-27,27-27s27,12.112,27,27v102     C184.25,464.522,179.773,469,174.25,469z M150.25,449h14v-92c0-3.859-3.14-7-7-7s-7,3.141-7,7V449z"/></g><g><path d="M242.25,469h-34c-5.523,0-10-4.478-10-10V357c0-14.888,12.112-27,27-27s27,12.112,27,27v102     C252.25,464.522,247.773,469,242.25,469z M218.25,449h14v-92c0-3.859-3.14-7-7-7s-7,3.141-7,7V449z"/></g><g><path d="M310.25,469h-34c-5.522,0-10-4.478-10-10V357c0-14.888,12.112-27,27-27s27,12.112,27,27v102     C320.25,464.522,315.772,469,310.25,469z M286.25,449h14v-92c0-3.859-3.141-7-7-7s-7,3.141-7,7V449z"/></g><g><path d="M378.25,469h-34c-5.522,0-10-4.478-10-10V357c0-14.888,12.112-27,27-27s27,12.112,27,27v102     C388.25,464.522,383.772,469,378.25,469z M354.25,449h14v-92c0-3.859-3.141-7-7-7s-7,3.141-7,7V449z"/></g><g><path d="M350.02,100c-0.007-0.001-0.015,0-0.02,0H250c-5.523,0-10-4.477-10-10V30c0-5.523,4.477-10,10-10h100     c4.045,0,7.691,2.437,9.239,6.173c1.547,3.737,0.691,8.038-2.168,10.898L334.143,60l22.562,22.562     c2.036,1.831,3.315,4.485,3.315,7.438C360.02,95.523,355.543,100,350.02,100z M260,80h65.857l-12.929-12.929     c-3.905-3.905-3.905-10.237,0-14.143L325.857,40H260V80z"/></g><g><path d="M250,130c-5.523,0-10-4.477-10-10V20c0-5.523,4.477-10,10-10s10,4.477,10,10v100C260,125.523,255.523,130,250,130z"/></g><g><path d="M435,500H75c-13.785,0-25-11.215-25-25s11.215-25,25-25h360c13.785,0,25,11.215,25,25S448.785,500,435,500z M75,470     c-2.757,0-5,2.243-5,5s2.243,5,5,5h360c2.757,0,5-2.243,5-5s-2.243-5-5-5H75z"/></g><g><path d="M310,230H140c-5.523,0-10-4.477-10-10s4.477-10,10-10h170c5.522,0,10,4.477,10,10S315.522,230,310,230z"/></g></g></g><g id="Layer_1"/></svg>