<?xml version="1.0" ?><svg height="48" version="1.1" viewBox="0 0 60 60" width="48" xmlns="http://www.w3.org/2000/svg" xmlns:xlink="http://www.w3.org/1999/xlink"><title/><desc/><defs/><g fill="none" fill-rule="evenodd" id="Page-1" stroke="none" stroke-width="1"><g fill="#000000" fill-rule="nonzero" id="Construction---Outline---090---Safety-Glasses"><path d="M30,0 C13.4314575,-1.01453063e-15 2.02906125e-15,13.4314575 0,30 C-2.02906125e-15,46.5685425 13.4314575,60 30,60 C46.5685425,60 60,46.5685425 60,30 C59.98123,13.4392385 46.5607615,0.0187700372 30,0 Z M30,58 C14.536027,58 2,45.463973 2,30 C2,14.536027 14.536027,2 30,2 C45.463973,2 58,14.536027 58,30 C57.9826679,45.4567881 45.4567881,57.9826679 30,58 Z" id="Shape"/><path d="M49.66113,20.47266 C48.7259037,19.5269809 47.4501367,18.996406 46.12012,19 L13.87988,19 C11.5048368,19.0028185 9.45844052,20.6735473 8.98047,23 L8,23 C6.89602664,23.0014379 6.00143787,23.8960266 6,25 L6,34 C6.00143787,35.1039734 6.89602664,35.9985621 8,36 L11.18176,36 L11.3789,36.97461 C11.8468025,39.311694 13.8968119,40.9953228 16.28027,41 L22.53027,41 C25.0147357,40.9914444 27.1193481,39.1670956 27.48047,36.709 L27.73828,34.87013 C27.8065718,34.3736877 28.229361,34.0029104 28.73047,34 L31.26953,34 C31.766601,34.0015247 32.1877149,34.3665754 32.25976,34.8584 L32.51953,36.71094 C32.8815237,39.1682631 34.9859012,40.9915836 37.46973,41 L43.71973,41 C46.1018182,40.9957962 48.15118,39.3139979 48.62012,36.97852 L48.81592,36 L52,36 C53.1039734,35.9985621 53.9985621,35.1039734 54,34 L54,25 C53.9985621,23.8960266 53.1039734,23.0014379 52,23 L51.01953,23 C50.8249706,22.0423537 50.3524876,21.1632862 49.66113,20.47266 Z M8,34 L8,25 L8.98438,25 L10.78028,34 L8,34 Z M43.71973,39 L37.46973,39 C35.9809769,38.9958407 34.7187814,37.9042356 34.5,36.43164 L34.23828,34.56934 C34.0266417,33.0930797 32.7608816,31.9976126 31.26953,32 L28.73047,32 C27.2350821,31.9989847 25.9676436,33.1001805 25.75977,34.58105 L25.5,36.42969 C25.2820938,37.9030621 24.0196624,38.9957001 22.53027,39 L16.28027,39 C14.8496915,38.9967423 13.6198846,37.9850995 13.34082,36.582 L12.98047,34.80173 L12.97937,34.79904 L10.94237,24.59274 C10.9028534,24.397579 10.8819298,24.1991109 10.87988,24 L10.87939,23.99756 L10.87988,23.99512 C10.885758,22.3414978 12.2262505,21.0031859 13.87988,21 L46.12012,21 C47.7756551,21.0031805 49.1169395,22.3444649 49.12012,24 C49.1181789,24.196459 49.0979077,24.3923082 49.05957,24.585 L46.6582,36.586 C46.378059,37.9874578 45.1489099,38.9972234 43.71973,39 L43.71973,39 Z M52,34 L49.21582,34 L51.016,25 L52,25 L52,34 Z" id="Shape"/><path d="M15.707,27.707 L18.707,24.707 C19.091453,24.3155191 19.0886083,23.6873575 18.7006254,23.2993746 C18.3126425,22.9113917 17.6844809,22.908547 17.293,23.293 L14.293,26.293 C14.0365859,26.5448109 13.9350329,26.9148595 14.0269999,27.2622771 C14.1189669,27.6096948 14.3903052,27.8810331 14.7377229,27.9730001 C15.0851405,28.0649671 15.4551891,27.9634141 15.707,27.707 L15.707,27.707 Z" id="Shape"/><path d="M23.293,29.293 L20.293,32.293 C20.0365859,32.5448109 19.9350329,32.9148595 20.0269999,33.2622771 C20.1189669,33.6096948 20.3903052,33.8810331 20.7377229,33.9730001 C21.0851405,34.0649671 21.4551891,33.9634141 21.707,33.707 L24.707,30.707 C25.091453,30.3155191 25.0886083,29.6873575 24.7006254,29.2993746 C24.3126425,28.9113917 23.6844809,28.908547 23.293,29.293 L23.293,29.293 Z" id="Shape"/><path d="M23.707,24.293 C23.5195167,24.1054224 23.2651781,24.0000344 22.99997,24.0000344 C22.7347619,24.0000344 22.4804233,24.1054224 22.29294,24.293 L15.29294,31.293 C15.037697,31.5450613 14.9370407,31.9145398 15.029166,32.2612339 C15.1212913,32.607928 15.3920793,32.8787045 15.7387773,32.9708151 C16.0854753,33.0629256 16.4549495,32.9622537 16.707,32.707 L23.707,25.707 C23.8945593,25.5195191 23.9999356,25.2651934 23.9999356,25 C23.9999356,24.7348066 23.8945593,24.4804809 23.707,24.293 Z" id="Shape"/></g></g></svg>