<?xml version="1.0" ?><svg height = "48" width = "48" id="line" viewBox="0 0 64 64" xmlns="http://www.w3.org/2000/svg"><title/><path d="M41,39H36V34a1,1,0,0,0-1-1H29a1,1,0,0,0-1,1v5H23a1,1,0,0,0-1,1v6a1,1,0,0,0,1,1h5v5a1,1,0,0,0,1,1h6a1,1,0,0,0,1-1V47h5a1,1,0,0,0,1-1V40A1,1,0,0,0,41,39Zm-1,6H35a1,1,0,0,0-1,1v5H30V46a1,1,0,0,0-1-1H24V41h5a1,1,0,0,0,1-1V35h4v5a1,1,0,0,0,1,1h5Z"/><path d="M58,14H46V9a1,1,0,0,0-1-1H42V6.063A4.068,4.068,0,0,0,37.937,2H26.063A4.068,4.068,0,0,0,22,6.063V8H19a1,1,0,0,0-1,1v5H6a1,1,0,0,0-1,1V61a1,1,0,0,0,1,1H58a1,1,0,0,0,1-1V15A1,1,0,0,0,58,14ZM44,10v4H42V10ZM24,14V12h3a1,1,0,0,0,1-1V9h8v2a1,1,0,0,0,1,1h3v2Zm0-7.937A2.066,2.066,0,0,1,26.063,4H37.937A2.066,2.066,0,0,1,40,6.063V10H38V8a1,1,0,0,0-1-1H27a1,1,0,0,0-1,1v2H24V6.063ZM20,10h2v4H20ZM7,16H57v8H52V20a1,1,0,0,0-1-1H43a1,1,0,0,0-1,1v4H22V20a1,1,0,0,0-1-1H13a1,1,0,0,0-1,1v4H7Zm43,5v8H44V21ZM20,21v8H14V21ZM7,60V26h5v4a1,1,0,0,0,1,1h8a1,1,0,0,0,1-1V26H42v4a1,1,0,0,0,1,1h8a1,1,0,0,0,1-1V26h5V60Z"/></svg>