<?xml version="1.0" ?><svg height = "48" width = "48" id="Layer_1" style="enable-background:new 0 0 64 64;" version="1.1" viewBox="0 0 64 64" xml:space="preserve" xmlns="http://www.w3.org/2000/svg" xmlns:xlink="http://www.w3.org/1999/xlink"><style type="text/css">
	.st0{fill:#343433;}
</style><g><path class="st0" d="M29.1,15.1c1.1,0.6,2.3,0.8,3.5,0.8c0.8,0,1.6-0.1,2.4-0.4c3.9-1.2,6.1-5.6,4.8-9.5c-1.3-4.1-5.5-6.2-9.6-4.9   c-1.9,0.6-3.5,1.9-4.4,3.7c-0.9,1.8-1.1,3.8-0.4,5.8C26,12.6,27.3,14.2,29.1,15.1z M28,6c0.6-1.2,1.7-2.1,3-2.5   c0.6-0.2,1.1-0.3,1.7-0.3c2.2,0,4.1,1.4,4.8,3.6c0.8,2.6-0.7,5.5-3.2,6.3h0c-1.4,0.4-2.8,0.3-4-0.3c-1.2-0.6-2.1-1.7-2.5-2.9   C27.3,8.6,27.4,7.2,28,6z"/><path class="st0" d="M22.6,19.3c-5.6,6.5-7.2,15.8-4.3,24.8c0.1,0.2,0.1,0.4,0.2,0.7c0.2,0.7,0.4,1.5,0.9,2.2   c0.4,0.8,0.8,1.6,1.3,2.3c0,0,0,0.1,0,0.2c0,0.7,0,1.3,0,2l0,1c0,1.2,0,2.5,0.1,3.9c0.1,3.8,1.6,6.2,4.1,6.8   c0.4,0.1,0.8,0.1,1.1,0.1c1,0,1.9-0.3,2.6-0.9c2.6-2.1,2.6-7.2,2.6-10.3c0-0.3,0-0.5,0-0.8l0-0.1c0-0.6,0-1.2,0-1.8   c0-0.1,0-0.2,0-0.2c1.7-2.5,2.5-5.6,2.3-9.2c-0.1-1.1-0.2-2-0.3-2.9c1.2,0.4,2.3,0.5,3.3,0.6c1.5,0.1,3.6,0.3,5.1-0.8   c1.2-0.9,1.8-2.3,1.7-3.7c0.3,0.1,0.6,0.2,0.8,0.5c0.4,0.4,0.6,0.9,0.6,1.4v26.9c0,0.7,0.6,1.3,1.3,1.3s1.3-0.6,1.3-1.3V35   c0-1.2-0.5-2.3-1.3-3.2c-1-1-2.4-1.4-3.8-1.2c-0.7-0.7-1.7-1.1-2.8-1.2l-0.1,0c-1-0.1-2-0.1-2.8-0.4c-1.7-0.5-3.3-1.7-4.2-3.2   c-0.4-0.7-0.4-1.5-0.4-2.4c0-1.1,0.1-2.3-0.7-3.5c-0.9-1.4-2.4-2.3-4.1-2.4C25.4,17.3,23.7,18,22.6,19.3z M26.7,19.9   c0.1,0,0.1,0,0.2,0c0.9,0.1,1.7,0.5,2.1,1.2c0.3,0.5,0.3,1.1,0.3,2c0,1.1-0.1,2.5,0.8,3.9c1.2,2,3.3,3.5,5.5,4.3   c1.1,0.3,2.3,0.4,3.4,0.5l0.1,0c0.8,0.1,1.4,0.5,1.6,1.1c0.2,0.7,0,1.4-0.6,1.8c-0.8,0.6-2.3,0.5-3.5,0.4c-1.2-0.1-2.8-0.3-4.2-1.1   c-0.5-0.3-1.2-0.2-1.6,0.1c-0.5,0.4-0.7,1-0.5,1.6c0.3,1.2,0.5,2.6,0.6,4.3c0.2,3.1-0.5,5.7-1.9,7.7c-0.3,0.5-0.4,1-0.4,1.5   c0,0.6,0,1.2,0,1.8l0,0.1c0,0.2,0,0.5,0,0.8c0,2.3,0,7-1.7,8.3c-0.4,0.3-1,0.4-1.6,0.3c-1.8-0.4-2.1-3.2-2.1-4.4   c0-1.3-0.1-2.6-0.1-3.8l0-1c0-0.7,0-1.4,0-2c0-0.7-0.1-1.2-0.4-1.5c-0.4-0.7-0.8-1.3-1.2-2.1l-0.1-0.2c-0.3-0.5-0.4-1-0.6-1.7   c-0.1-0.2-0.1-0.5-0.2-0.7c-2.6-8.2-1.2-16.6,3.9-22.4C25,20.3,25.8,19.9,26.7,19.9z"/></g></svg>