<?xml version="1.0" ?><!DOCTYPE svg  PUBLIC '-//W3C//DTD SVG 1.1//EN'  'http://www.w3.org/Graphics/SVG/1.1/DTD/svg11.dtd'><svg height="48" style="shape-rendering:geometricPrecision; text-rendering:geometricPrecision; image-rendering:optimizeQuality; fill-rule:evenodd; clip-rule:evenodd" version="1.1" viewBox="0 0 1.176 1.176" width="48" xml:space="preserve" xmlns="http://www.w3.org/2000/svg" xmlns:xlink="http://www.w3.org/1999/xlink"><defs><style type="text/css">
   <![CDATA[
    .fil0 {fill:none}
    .fil1 {fill:black;fill-rule:nonzero}
   ]]>
  </style></defs><g id="Layer_x0020_1"><g id="_1966879450928"><rect class="fil0" height="1.176" width="1.176"/><path class="fil1" d="M0.588 1.139l-0.471 0c-0.011,0 -0.019,-0.009 -0.019,-0.019l0 -0.068c0,-0.075 0.024,-0.145 0.067,-0.198 0.041,-0.05 0.1,-0.086 0.171,-0.094l0.014 -0.002c-0.013,-0.047 -0.029,-0.085 -0.045,-0.122 -0.031,-0.075 -0.061,-0.145 -0.061,-0.272 0,-0.09 0.04,-0.171 0.102,-0.23 0.063,-0.06 0.15,-0.097 0.242,-0.097 0.092,0 0.179,0.037 0.242,0.097 0.062,0.059 0.101,0.14 0.101,0.23 0,0.127 -0.029,0.197 -0.06,0.272 -0.016,0.037 -0.032,0.075 -0.045,0.122l0.014 0.002c0.071,0.008 0.13,0.044 0.171,0.094 0.043,0.053 0.067,0.123 0.067,0.198l0 0.068c0,0.01 -0.008,0.019 -0.019,0.019l-0.471 0zm0.118 -0.38l-0.012 -0.056c-0.035,0.022 -0.073,0.034 -0.106,0.034 -0.033,0 -0.071,-0.012 -0.106,-0.033l-0.012 0.055 0.118 0.104 0.118 -0.104zm0.022 -0.079l0.014 0.068 0.046 0.005c0.014,-0.052 0.031,-0.092 0.048,-0.132 0.03,-0.071 0.058,-0.138 0.058,-0.257 0,-0.079 -0.035,-0.15 -0.09,-0.202 -0.057,-0.054 -0.134,-0.087 -0.216,-0.087 -0.082,0 -0.159,0.033 -0.216,0.087 -0.055,0.052 -0.09,0.123 -0.09,0.202 0,0.119 0.028,0.186 0.058,0.257 0.017,0.04 0.034,0.08 0.048,0.132l0.045 -0.005 0.015 -0.068c-0.008,-0.006 -0.016,-0.014 -0.024,-0.021 -0.042,-0.042 -0.071,-0.097 -0.071,-0.158l0 -0.194c0,-0.011 0.008,-0.019 0.018,-0.019 0.026,0 0.056,-0.005 0.084,-0.012 0.022,-0.006 0.043,-0.013 0.06,-0.02 -0.015,-0.024 -0.025,-0.049 -0.029,-0.074 -0.001,-0.01 0.006,-0.02 0.016,-0.022 0.01,-0.001 0.02,0.006 0.021,0.016 0.005,0.026 0.016,0.051 0.034,0.075 0,0.001 0.001,0.002 0.001,0.002 0.017,0.022 0.038,0.042 0.062,0.06 0.051,0.035 0.116,0.059 0.184,0.059 0.011,0 0.019,0.008 0.019,0.019l0 0.11c0,0.061 -0.03,0.116 -0.071,0.158 -0.008,0.007 -0.016,0.014 -0.024,0.021zm0.057 -0.271c-0.069,-0.004 -0.135,-0.029 -0.186,-0.065 -0.024,-0.017 -0.045,-0.036 -0.062,-0.056 -0.02,0.009 -0.045,0.018 -0.072,0.025 -0.025,0.006 -0.051,0.01 -0.075,0.012l0 0.176c0,0.05 0.026,0.096 0.061,0.131 0.041,0.041 0.094,0.067 0.137,0.067 0.042,0 0.096,-0.026 0.137,-0.067 0.035,-0.035 0.06,-0.081 0.06,-0.131l0 -0.092zm-0.649 0.692l0.904 0 0 -0.049c0,-0.066 -0.021,-0.128 -0.058,-0.174 -0.035,-0.043 -0.086,-0.073 -0.147,-0.081l-0.102 -0.012 -0.133 0.118c-0.007,0.006 -0.017,0.006 -0.025,0l-0.132 -0.118 -0.102 0.012c-0.062,0.008 -0.112,0.038 -0.147,0.081 -0.037,0.046 -0.058,0.108 -0.058,0.174l0 0.049z"/></g></g></svg>