<?xml version="1.0" ?><svg width = "48" height = "48" id="Layer_1" style="enable-background:new 0 0 512 512;" version="1.1" viewBox="0 0 512 512" xml:space="preserve" xmlns="http://www.w3.org/2000/svg" xmlns:xlink="http://www.w3.org/1999/xlink"><path d="M404.1,59.2c-23.9-23.9-62.7-23.9-86.9,0.3L196.6,180.1c-7.2-6.6-19.1-6.5-26,0.5c-7.3,7.3-7.3,19.2,0,26.6l3.4,3.4l-52,52  l34.7,34.7l-55.3,55.3l0,0l0,0l-0.3,0.3c0,0-0.1,0.1-0.1,0.1c-14.6,15.1-14.5,39.2,0.4,54.1c7.5,7.5,17.4,11.3,27.3,11.3  c9.9,0,19.8-3.8,27.3-11.3l10.3-10.3c10.1-10.1,26.4-10.1,36.5,0c10.1,10.1,10.1,26.4,0,36.5l-11.3,11.3l-12.5,4.1  c-3.4,1.1-5.2,4.7-4.1,8.1c1.1,3.4,4.7,5.2,8.1,4.1l2.1-0.7l-0.7,2.1c-1.1,3.4,0.8,7,4.1,8.1c0.7,0.2,1.3,0.3,2,0.3  c2.7,0,5.2-1.7,6.1-4.4l4.1-12.5l11.3-11.3c15.1-15.1,15.1-39.5,0-54.6c-15.1-15.1-39.6-15.1-54.6,0l-10.3,10.3  c-10.1,10.1-26.4,10.1-36.5,0c-10.1-10.1-10.1-26.4,0-36.5l55.3-55.3l35.1,35.1l52-52l3.4,3.4c3.7,3.7,8.5,5.5,13.3,5.5  s9.6-1.8,13.3-5.5c7.2-7.1,7.3-18.6,0.5-26l121-121C428,121.9,428,83.1,404.1,59.2z M200.7,323.3L140,262.6l43-43l60.8,60.8  L200.7,323.3z M273.7,283.7c-2.3,2.3-6.1,2.3-8.5,0l-85.6-85.6c-2.3-2.3-2.3-6.1,0-8.5c1.1-1.1,2.6-1.8,4.2-1.8  c1.6,0,3.1,0.6,4.2,1.8l85.6,85.6C276,277.6,276,281.4,273.7,283.7z M274.2,257.7l-68.5-68.5L326.6,68.2  c12.9-12.9,31.3-17,47.7-12.3c-3.1,1-6,2.5-9,4.5c-2.3,1.6-2.9,4.8-1.3,7.1c1,1.4,2.6,2.2,4.2,2.2c1,0,2-0.3,2.9-0.9  c5.9-4,11.5-5.2,18-3.7l-10.2,10.2c-2.5,2.5-2.5,6.6,0,9.1c1.2,1.2,2.9,1.9,4.5,1.9c1.6,0,3.3-0.6,4.5-1.9l10.2-10.2  c1.5,6.5,0.3,12.1-3.7,18c-1.6,2.3-1,5.5,1.3,7.1c0.9,0.6,1.9,0.9,2.9,0.9c1.6,0,3.2-0.8,4.2-2.2c2-2.9,3.5-5.9,4.5-9  c4.7,16.4,0.5,34.9-12.6,48L274.2,257.7z"/></svg>