<?xml version="1.0" encoding="utf-8"?>
<!-- Svg Vector Icons : http://www.onlinewebfonts.com/icon -->
<!DOCTYPE svg PUBLIC "-//W3C//DTD SVG 1.1//EN" "http://www.w3.org/Graphics/SVG/1.1/DTD/svg11.dtd">
<svg version="1.1" xmlns="http://www.w3.org/2000/svg" xmlns:xlink="http://www.w3.org/1999/xlink" x="0px" y="0px" width = "48" height = "48" viewBox="0 0 1000 1000" enable-background="new 0 0 1000 1000" xml:space="preserve">
<metadata> Svg Vector Icons : http://www.onlinewebfonts.com/icon </metadata>
<g><g transform="translate(0.000000,511.000000) scale(0.100000,-0.100000)"><path d="M4634.7,4983.8c-534.6-103-915.8-306.7-1290.5-683.6c-379-381.2-611.3-865.4-670.4-1395.6c-19.7-162.1-32.9-208.1-81.1-265.1c-273.9-324.3-190.6-777.8,188.4-1018.8l107.4-70.1l11-420.7c8.8-322.1,21.9-455.7,52.6-574c109.6-392.2,311.1-729.6,602.5-1007.8c287-276.1,560.9-433.8,929-541.2c146.8-43.8,223.5-50.4,512.7-50.4c394.4,0,556.5,35.1,887.3,197.2c245.4,118.3,436,260.7,646.3,486.4C6735.8-140.8,6887,109,6981.2,385c96.4,284.8,118.3,436,118.3,830.4v333l109.6,70.1c138,89.8,234.4,197.2,302.3,346.2c94.2,208.1,48.2,484.2-113.9,677c-43.8,52.6-59.1,105.2-81,271.7c-98.6,823.8-591.6,1500.8-1373.7,1890.8C5605.3,4972.9,5005,5056.1,4634.7,4983.8z M5368.7,4512.8l76.7-15.3l11-359.3c10.9-390,24.1-438.2,131.4-493c81.1-41.6,138-41.6,221.3,2.2c98.6,50.4,129.3,146.8,129.3,414.1c0,127.1,8.8,230,19.7,230c21.9,0,245.4-164.3,346.2-254.2c256.4-234.4,466.7-644.1,541.2-1053.9l13.1-72.3H4996.2H3136.1l11,72.3c96.4,534.6,368.1,966.2,784.4,1246.7c50.4,35,96.4,61.3,107.4,61.3c8.8,0,15.3-103,15.3-230c0-151.2,11-258.5,30.7-306.7c32.9-76.7,129.3-142.4,210.3-142.4c81.1,0,177.5,65.7,210.3,142.4c21.9,54.8,30.7,168.7,30.7,405.3c0,254.2,6.6,333,28.5,341.8C4689.5,4547.8,5162.7,4556.6,5368.7,4512.8z M6990,2411.7c87.6-43.8,124.9-144.6,100.8-276.1c-30.7-166.5,107.4-155.6-2094.5-155.6s-2063.9-11-2094.6,155.6c-24.1,131.5,13.1,232.2,100.8,276.1c72.3,37.2,212.5,39.4,1993.8,39.4C6777.5,2451.1,6917.7,2448.9,6990,2411.7z M6632.9,1143.1c-15.3-433.8-54.8-617.8-192.8-889.5c-133.6-258.5-418.5-541.2-677-666.1c-276-135.8-422.9-168.7-755.9-168.7c-341.8-2.2-521.4,37.2-777.8,170.9c-304.5,155.6-523.6,374.7-679.2,672.7c-135.8,260.7-175.3,449.1-190.6,880.8l-13.1,365.9h1649.8H6646L6632.9,1143.1z"/><path d="M3258.8-1078.6c-401-43.8-885.2-201.5-1242.3-403.1c-385.6-219.1-830.4-617.9-1080.1-968.4c-258.5-363.7-460.1-828.2-556.5-1277.3c-28.5-138-39.4-284.8-39.4-563.1v-376.9l61.3-61.3L461-4790h4535.3h4535.3l59.2,61.3c59.2,59.2,61.3,65.7,67.9,357.1c21.9,863.2-322.1,1698-957.4,2333.4C8146.8-1486.1,7452.3-1153,6692-1078.6c-335.2,32.9-344,30.7-508.3-252c-431.6-742.7-1503-893.9-2134-297.9c-96.4,92-190.6,208.1-252,315.5c-54.8,92-116.1,184-138,203.8C3607.2-1061,3495.4-1054.4,3258.8-1078.6z M3453.8-1683.2c168.7-306.7,595.9-1047.3,970.6-1680.4c392.2-666.1,447-736.2,567.5-736.2c124.9,0,173.1,54.8,460.1,543.3c501.7,845.7,718.6,1218.2,935.5,1606c116.1,210.4,219.1,390,230,401c30.7,30.7,449.1-48.2,701.1-131.5c863.2-287,1527.1-981.5,1772.5-1853.5c54.8-190.6,111.7-554.3,111.7-701.1v-105.2H4994H783l15.3,214.7c89.8,1297,1018.8,2329,2302.7,2554.6C3377.1-1523.3,3361.8-1516.7,3453.8-1683.2z M5311.7-2881.7c-168.7-284.8-308.9-517.1-315.5-517.1c-15.3,0-611.3,1016.6-602.5,1025.4c2.2,4.4,63.5-8.8,133.7-28.5c203.8-57,600.3-67.9,819.4-24.1c103,21.9,199.4,46,219.1,57c17.5,11,35,15.3,39.4,11C5609.7-2362.4,5478.2-2599,5311.7-2881.7z"/></g></g>
</svg>